<svg xmlns="http://www.w3.org/2000/svg" width="1024" height="1024" viewBox="0 0 1024 1024">
<g>
<path d="M 518.44 703.02 C515.91,704.11 513.31,704.93 512.67,704.85 C512.03,704.77 507.08,703.17 501.68,701.30 C478.33,693.22 439.41,687.51 390.50,685.01 C337.32,682.28 306.21,681.00 292.81,681.00 C284.09,681.00 277.87,680.59 277.50,680.00 C277.09,679.33 357.03,679.05 516.69,679.15 C645.42,679.23 743.86,679.63 743.87,680.06 C743.87,680.08 743.74,680.09 743.50,680.11 C736.35,680.55 713.17,681.63 692.00,682.51 C617.61,685.59 582.86,688.39 555.00,693.54 C539.68,696.37 525.23,700.12 518.44,703.02 ZM 490.00 516.50 C490.00,518.42 489.55,520.00 489.00,520.00 C488.45,520.00 488.00,518.42 488.00,516.50 C488.00,513.64 487.63,513.00 485.95,513.00 C483.83,513.00 476.67,506.79 477.09,505.33 C477.22,504.87 477.72,502.73 478.21,500.56 C478.70,498.39 479.99,495.99 481.09,495.23 C481.61,494.86 482.02,494.62 482.27,494.26 C483.09,493.11 482.23,490.78 478.02,479.27 C477.79,478.65 477.55,477.99 477.30,477.31 C473.19,466.08 472.62,465.07 469.92,464.48 C468.32,464.13 466.35,462.91 465.55,461.77 C464.11,459.71 463.98,459.70 452.30,461.25 C445.82,462.11 440.17,462.61 439.76,462.35 C437.57,461.00 440.12,460.16 451.24,458.59 C457.97,457.64 463.51,456.78 463.54,456.68 C463.58,456.58 464.34,455.32 465.24,453.88 C466.84,451.32 466.69,450.88 458.36,433.16 C453.67,423.20 450.04,414.25 450.27,413.28 C450.66,411.68 458.15,426.16 466.30,444.25 C468.50,449.13 469.29,450.00 471.51,450.00 C475.00,450.00 478.00,451.70 478.00,453.67 C478.00,455.02 478.84,455.18 483.25,454.65 C486.14,454.30 494.58,453.52 502.00,452.91 C519.78,451.46 522.40,450.90 522.85,448.46 C523.04,447.38 523.88,445.74 524.71,444.81 C526.06,443.28 525.48,441.84 518.67,429.81 C514.53,422.49 506.88,409.75 501.66,401.50 C496.45,393.25 492.35,386.33 492.55,386.13 C493.76,384.88 496.50,388.29 504.22,400.63 C508.99,408.26 516.20,420.34 520.25,427.47 C527.00,439.38 527.87,440.49 531.02,441.14 C532.91,441.52 534.77,441.64 535.17,441.40 C536.36,440.66 558.94,406.18 562.64,399.45 L 566.08 393.18 L 564.04 389.84 C562.92,388.00 562.01,385.11 562.00,383.41 C562.00,381.07 561.38,380.04 559.45,379.16 C558.05,378.52 556.25,378.00 555.45,378.00 C554.65,378.00 554.00,377.60 554.00,377.11 C554.00,376.63 552.76,375.99 551.25,375.70 C549.74,375.41 544.52,373.78 539.65,372.07 C528.05,368.00 513.96,364.52 495.58,361.17 C487.25,359.66 480.48,357.94 480.26,357.28 C479.83,356.00 480.85,356.08 497.00,358.60 C513.20,361.13 534.36,366.80 549.23,372.60 C558.90,376.37 562.12,376.77 564.05,374.43 C565.80,372.33 570.44,370.00 572.88,370.00 C573.99,370.00 575.15,369.11 575.50,368.00 C576.32,365.41 578.40,365.38 577.72,367.96 C577.22,369.86 578.44,370.95 586.28,375.64 C587.72,376.50 587.86,376.92 586.84,377.39 C586.00,377.77 585.89,378.19 586.55,378.52 C587.65,379.06 587.02,388.56 585.76,390.59 C585.39,391.19 586.86,393.41 589.04,395.54 C595.49,401.83 593.71,403.44 587.00,397.38 C583.25,393.99 582.80,393.84 580.01,395.00 C577.16,396.18 573.23,396.03 570.00,394.63 C568.93,394.17 567.79,395.33 566.00,398.71 C562.65,405.04 548.60,426.83 542.10,435.77 C537.11,442.63 536.94,443.07 538.43,445.21 C539.29,446.44 540.00,448.24 540.00,449.22 C540.00,450.77 541.05,451.01 548.25,451.10 C552.79,451.15 557.62,451.54 559.00,451.96 C563.83,453.44 558.32,454.30 548.62,453.59 L 539.36 452.91 L 538.15 455.58 C537.06,457.95 537.34,459.14 540.62,466.13 C544.04,473.42 544.53,476.07 542.19,474.62 C541.67,474.30 539.76,470.65 537.94,466.52 L 534.64 459.00 L 530.33 459.00 C526.13,459.00 525.87,459.20 520.65,466.25 C517.70,470.24 510.95,478.60 505.65,484.83 C497.65,494.23 496.18,496.47 497.00,498.00 C497.54,499.01 498.23,501.39 498.53,503.28 C499.01,506.30 498.64,507.11 495.50,509.86 C493.54,511.59 491.50,513.00 490.97,513.00 C490.43,513.00 490.00,514.58 490.00,516.50 ZM 480.90 582.02 C459.89,586.71 439.94,584.70 425.00,576.41 C421.12,574.26 420.92,573.99 423.50,574.51 C431.51,576.11 448.81,576.16 457.72,574.61 C506.76,566.10 563.89,523.21 601.34,466.80 C613.97,447.77 626.91,422.29 631.06,408.25 C632.35,403.89 634.23,402.20 633.29,406.25 C631.59,413.59 625.67,433.81 622.98,441.50 C618.80,453.43 607.63,476.55 600.96,487.06 C570.36,535.26 523.16,572.60 480.90,582.02 ZM 489.38 492.77 C491.65,493.31 493.73,493.81 494.00,493.88 C494.57,494.02 500.05,487.75 509.82,475.78 C520.99,462.10 525.21,456.15 524.53,455.04 C523.62,453.57 518.13,453.70 497.25,455.67 C480.50,457.25 478.96,457.56 478.39,459.45 C478.04,460.58 477.21,462.17 476.53,463.00 C475.53,464.22 476.23,467.04 480.28,478.14 L 485.26 491.77 ZM 618.49 487.43 C609.97,491.75 605.15,493.19 606.49,491.02 C606.82,490.47 611.91,487.54 617.80,484.50 C627.80,479.33 630.80,477.87 631.26,475.83 C631.45,474.97 631.19,474.00 630.82,472.61 C630.78,472.47 630.74,472.32 630.70,472.17 C629.67,468.31 629.17,467.82 625.03,466.61 C622.54,465.89 620.72,464.89 621.00,464.40 C621.51,463.47 623.29,463.49 628.50,464.47 C630.39,464.82 632.20,464.48 633.39,463.55 C635.21,462.13 635.15,461.86 631.59,455.88 C627.36,448.78 627.06,447.91 628.66,447.32 C629.30,447.09 631.06,449.17 632.57,451.95 C634.08,454.73 635.65,457.00 636.05,457.00 C636.97,457.00 635.56,450.42 632.94,442.41 C631.58,438.28 631.22,435.59 631.79,434.04 C632.51,432.09 632.96,432.85 634.82,439.13 C636.02,443.18 637.63,449.79 638.40,453.81 C639.17,457.83 639.95,461.23 640.15,461.37 C640.34,461.50 641.78,462.41 643.34,463.39 C645.89,464.98 646.14,465.61 645.74,469.33 C645.19,474.37 643.12,479.81 640.75,482.44 C639.03,484.34 639.00,484.33 639.00,481.80 C639.00,477.91 634.89,477.22 630.71,480.41 C628.93,481.76 623.43,484.92 618.49,487.43 ZM 582.76 538.95 C572.77,541.62 566.00,542.51 566.00,541.13 C566.00,540.53 567.24,539.78 568.75,539.46 C570.26,539.15 574.42,538.21 578.00,537.39 C591.81,534.22 591.59,534.32 592.81,530.24 C594.72,523.85 603.60,520.52 608.03,524.53 C608.93,525.34 610.09,526.00 610.62,526.00 C611.14,526.00 611.65,526.97 611.74,528.16 C611.83,529.35 612.48,530.69 613.20,531.14 C614.17,531.76 614.19,531.97 613.27,531.98 C612.59,531.99 611.14,533.76 610.04,535.91 C608.62,538.70 607.05,540.16 604.59,540.97 C600.07,542.46 594.25,541.38 593.47,538.90 C592.72,536.53 591.76,536.54 582.76,538.95 ZM 432.27 375.40 C431.08,376.58 430.22,375.95 429.00,373.00 C428.10,370.82 427.09,370.00 425.31,370.00 C422.69,370.00 418.91,368.33 417.85,366.70 C417.45,366.09 415.42,366.74 412.67,368.35 C407.84,371.18 406.51,371.60 407.50,370.00 C407.84,369.45 407.53,369.00 406.81,369.00 C406.09,369.00 407.96,367.70 410.97,366.10 C415.21,363.86 416.63,362.51 417.25,360.11 C417.69,358.40 419.17,356.28 420.53,355.39 C422.46,354.13 423.00,352.91 423.00,349.88 C423.00,347.01 423.41,346.00 424.58,346.00 C425.81,346.00 426.06,346.78 425.69,349.51 C425.28,352.57 425.53,353.09 427.63,353.62 C428.96,353.96 430.68,355.14 431.46,356.25 C432.86,358.24 433.04,358.25 443.38,356.64 C456.33,354.62 458.00,354.60 458.00,356.50 C458.00,357.57 456.92,358.00 454.25,358.00 C452.19,358.00 446.55,358.72 441.72,359.61 C433.10,361.19 432.91,361.29 431.41,364.86 C430.05,368.10 430.05,368.85 431.38,371.65 C432.20,373.38 432.60,375.07 432.27,375.40 ZM 571.39 392.02 C574.53,393.29 576.78,393.16 579.93,391.54 C583.19,389.85 584.00,388.22 584.00,383.32 C584.00,378.56 578.62,373.00 574.02,373.00 C569.54,373.00 565.00,377.68 565.00,382.29 C565.00,386.07 568.01,390.65 571.39,392.02 ZM 414.64 470.37 C412.74,473.12 408.43,473.22 405.23,470.59 C403.21,468.93 401.85,468.53 400.00,469.07 C398.62,469.47 396.21,469.85 394.63,469.90 C392.18,469.99 391.94,469.78 393.00,468.50 C393.68,467.67 395.29,467.00 396.56,467.00 C400.82,467.00 404.27,465.13 403.74,463.10 C403.36,461.66 404.09,460.96 406.98,460.01 C410.87,458.72 413.41,459.38 415.82,462.29 C416.70,463.35 418.14,463.50 421.74,462.90 C424.36,462.47 427.09,462.09 427.81,462.06 C428.55,462.03 428.80,461.49 428.39,460.83 C428.00,460.19 428.82,460.52 430.23,461.58 C432.49,463.27 432.59,463.58 431.06,464.16 C430.10,464.52 426.74,465.14 423.58,465.53 C417.94,466.24 417.22,466.63 414.64,470.37 ZM 572.24 330.62 C570.32,332.07 564.00,332.49 564.00,331.16 C564.00,329.03 545.62,322.84 529.26,319.47 C522.39,318.06 516.54,317.12 516.27,317.40 C515.73,317.93 513.00,315.56 513.00,314.56 C513.00,313.79 518.92,314.69 533.50,317.70 C545.66,320.20 560.59,325.35 566.74,329.15 C572.30,332.59 571.44,330.64 564.54,324.19 C560.77,320.66 558.48,317.82 559.10,317.44 C559.68,317.08 561.36,317.88 562.83,319.23 C564.30,320.57 567.41,323.39 569.74,325.49 C573.62,328.98 573.83,329.41 572.24,330.62 ZM 599.37 561.93 C596.42,564.24 594.67,564.40 591.00,562.71 C587.68,561.18 587.03,560.12 587.02,556.20 C586.98,549.51 594.91,545.59 599.85,549.87 C603.10,552.69 602.84,559.19 599.37,561.93 ZM 543.11 585.79 C540.66,590.38 533.93,590.20 530.60,585.45 C527.64,581.22 531.13,574.00 536.15,574.00 C541.43,574.00 545.63,581.09 543.11,585.79 ZM 596.56 536.78 C599.50,540.97 607.07,538.83 608.43,533.42 C610.11,526.73 601.44,523.08 597.07,528.63 C594.60,531.78 594.47,533.80 596.56,536.78 ZM 550.10 316.28 C548.30,317.35 547.57,317.84 546.83,317.85 C546.25,317.86 545.67,317.56 544.57,317.00 C544.39,316.91 544.21,316.81 544.00,316.71 C540.99,315.19 538.66,309.20 540.40,307.45 C542.11,305.75 545.67,304.00 547.43,304.00 C550.12,304.00 553.00,307.78 553.00,311.28 C553.00,313.85 552.36,314.94 550.10,316.28 ZM 469.73 344.58 C470.95,345.81 470.87,346.00 469.16,346.00 C467.76,346.00 466.12,344.12 463.61,339.64 C461.65,336.13 459.60,332.08 459.05,330.64 C458.37,328.83 457.32,328.00 455.72,328.00 C453.43,328.00 451.00,326.36 451.00,324.81 C451.00,323.94 458.22,320.49 461.65,319.72 C463.61,319.28 463.72,319.50 462.91,322.30 C462.43,323.99 461.59,325.81 461.05,326.35 C460.05,327.36 466.89,341.75 469.73,344.58 ZM 429.00 540.59 C429.00,541.80 425.81,540.58 420.27,537.24 C409.44,530.72 394.16,515.51 396.29,513.38 C396.53,513.14 400.27,516.60 404.61,521.07 C408.95,525.53 416.21,531.66 420.75,534.69 C425.29,537.71 429.00,540.37 429.00,540.59 ZM 578.53 385.97 C576.22,388.52 574.94,388.52 572.19,385.96 C568.15,382.20 570.23,377.55 575.67,378.18 C579.53,378.62 581.16,383.06 578.53,385.97 ZM 488.90 376.75 C492.98,382.50 493.68,384.00 492.25,384.00 C490.42,384.00 478.00,366.78 478.00,364.25 C478.00,362.00 479.76,362.94 481.77,366.25 C482.86,368.04 486.07,372.76 488.90,376.75 ZM 443.65 396.75 C444.75,399.35 444.77,400.00 443.74,400.00 C442.72,400.00 432.00,380.36 432.00,378.49 C432.00,378.22 432.58,378.00 433.28,378.00 C434.42,378.00 439.91,387.92 443.65,396.75 ZM 793.30 668.75 C792.43,673.20 791.00,670.88 791.00,665.00 C791.00,658.83 792.32,657.16 793.97,661.25 L 794.87 663.50 L 794.94 661.25 C794.97,660.01 795.45,659.00 796.00,659.00 C796.56,659.00 797.00,661.67 797.00,665.00 C797.00,671.10 795.84,672.83 794.49,668.75 L 793.75 666.50 ZM 496.00 316.58 C496.00,316.81 492.40,317.00 488.00,317.00 C481.91,317.00 480.00,316.67 480.00,315.64 C480.00,314.30 485.92,313.00 492.03,313.00 C494.34,313.00 496.00,314.50 496.00,316.58 ZM 803.42 671.39 L 803.32 671.43 C802.37,671.80 801.87,671.99 801.43,671.90 C800.94,671.81 800.51,671.36 799.57,670.43 C797.89,668.75 797.47,662.39 798.89,660.15 C799.87,658.59 803.15,658.94 803.72,660.67 C803.97,661.42 803.37,661.65 802.06,661.30 C800.23,660.83 800.00,661.22 800.00,664.82 C800.00,668.67 801.93,671.70 802.77,669.18 C803.32,667.54 805.00,667.70 805.00,669.39 C805.00,670.16 804.29,671.06 803.42,671.39 ZM 401.56 375.97 C395.55,381.04 395.24,381.20 394.41,379.86 C393.98,379.16 394.17,378.44 394.83,378.22 C395.48,378.01 395.71,377.31 395.35,376.66 C394.98,376.02 395.04,375.83 395.48,376.22 C395.92,376.62 397.98,375.60 400.05,373.96 C404.68,370.29 406.09,372.16 401.56,375.97 ZM 579.00 350.67 C578.65,356.04 578.08,358.48 577.09,358.81 C576.10,359.13 575.88,358.76 576.34,357.55 C576.70,356.61 577.00,352.95 577.00,349.42 C577.00,344.95 577.38,343.00 578.25,343.00 C579.18,343.00 579.37,344.93 579.00,350.67 ZM 591.00 344.62 C591.00,346.57 588.93,346.30 586.00,343.95 C584.62,342.85 584.17,342.07 585.00,342.22 C585.83,342.38 586.38,341.92 586.24,341.22 C586.06,340.32 586.72,340.42 588.49,341.59 C589.87,342.49 591.00,343.85 591.00,344.62 ZM 449.24 409.42 C448.17,410.49 447.44,410.01 445.72,407.10 C443.67,403.63 443.60,403.00 445.25,403.01 C446.68,403.01 450.12,408.55 449.24,409.42 ZM 785.00 669.50 C785.00,671.85 783.18,672.85 781.67,671.33 C780.17,669.84 781.05,667.00 783.00,667.00 C784.47,667.00 785.00,667.67 785.00,669.50 ZM 389.00 469.31 C389.00,470.11 387.85,470.99 386.45,471.25 C384.49,471.63 383.97,471.37 384.21,470.12 C384.61,468.04 389.00,467.30 389.00,469.31 Z" fill="rgb(22,84,134)"/>
<path d="M 572.24 330.62 C573.83,329.41 573.62,328.98 569.74,325.49 C567.41,323.39 564.30,320.57 562.83,319.23 C561.36,317.88 559.68,317.08 559.10,317.44 C558.52,317.80 560.49,320.30 563.83,323.51 C561.36,321.28 558.72,319.11 556.81,317.89 C553.31,315.64 552.34,315.11 550.96,315.73 C552.53,314.61 553.00,313.49 553.00,311.28 C553.00,309.04 551.82,306.68 550.26,305.28 C551.43,306.06 552.31,307.29 552.63,308.90 C553.10,311.27 554.04,311.96 558.84,313.44 C570.90,317.17 600.00,332.98 600.00,335.81 C600.00,338.07 598.21,337.44 590.66,332.54 C582.23,327.07 568.39,319.80 564.00,318.55 C562.15,318.02 563.19,319.41 568.00,323.88 C572.67,328.22 575.29,329.94 577.30,329.96 C580.58,330.01 585.00,334.00 585.00,336.92 C585.00,338.03 586.35,339.94 588.00,341.16 C588.29,341.37 588.56,341.59 588.81,341.81 C588.71,341.73 588.60,341.66 588.49,341.59 C586.72,340.42 586.06,340.32 586.24,341.22 C586.38,341.92 585.83,342.38 585.00,342.22 C584.17,342.07 584.62,342.85 586.00,343.95 C588.78,346.18 590.78,346.54 590.98,344.90 C591.06,345.57 590.68,345.99 589.75,345.98 C589.06,345.97 587.40,345.11 586.06,344.08 C584.15,342.61 583.15,342.43 581.36,343.25 C580.09,343.82 579.51,344.41 579.18,346.32 C579.18,343.90 578.89,343.00 578.25,343.00 C577.38,343.00 577.00,344.95 577.00,349.42 C577.00,351.40 576.91,353.42 576.76,354.98 C576.75,353.92 576.77,352.65 576.84,351.18 C577.18,343.65 577.10,343.29 574.55,341.63 C573.10,340.67 571.52,338.86 571.04,337.59 C570.11,335.17 565.77,333.95 552.75,332.44 C545.87,331.64 536.00,332.70 536.00,334.24 C536.00,334.85 538.27,337.95 541.04,341.13 C545.35,346.09 558.09,363.33 563.04,370.90 C564.54,373.19 564.68,373.22 567.74,371.63 C568.16,371.42 568.61,371.21 569.07,371.02 C567.09,371.90 565.08,373.20 564.05,374.43 C563.35,375.28 562.49,375.76 561.20,375.86 C561.72,375.73 562.00,375.46 562.00,375.04 C562.00,373.81 552.45,359.78 544.98,350.02 C537.86,340.72 533.53,336.55 531.99,337.50 C531.35,337.90 529.12,337.46 527.04,336.52 C523.41,334.88 522.93,334.90 515.38,336.94 C511.04,338.12 504.35,340.25 500.50,341.69 C493.27,344.39 480.00,350.70 480.00,351.45 C480.00,351.68 480.44,353.02 480.98,354.43 C481.38,355.49 481.80,356.14 482.49,356.52 C480.20,356.33 480.04,356.63 480.26,357.28 C480.43,357.80 484.69,358.98 490.57,360.20 C488.71,359.90 486.97,359.64 485.40,359.44 C481.18,358.89 480.19,359.07 479.66,360.44 C479.27,361.46 479.33,362.33 480.96,365.01 C479.31,362.74 478.00,362.31 478.00,364.25 C478.00,364.77 478.52,365.90 479.36,367.38 C477.69,365.25 476.65,364.45 476.00,364.71 C475.17,365.04 472.61,365.79 470.31,366.37 C468.01,366.95 465.90,368.12 465.63,368.96 C465.36,369.81 463.31,375.59 461.07,381.80 C458.83,388.02 457.00,393.49 457.00,393.95 C457.00,394.42 463.64,392.61 471.75,389.92 C479.86,387.24 487.32,385.04 488.32,385.02 C490.48,385.00 490.44,384.13 486.09,377.31 C488.87,381.00 491.49,384.00 492.25,384.00 C493.68,384.00 492.98,382.50 488.90,376.75 C486.76,373.74 484.41,370.31 482.92,368.04 C484.19,369.93 485.90,372.37 488.16,375.57 L 493.84 383.64 L 502.67 381.85 C513.87,379.58 530.06,377.27 541.00,376.38 L 549.50 375.70 L 545.89 374.16 C548.37,374.95 550.40,375.54 551.25,375.70 C552.76,375.99 554.00,376.63 554.00,377.11 C554.00,377.60 554.65,378.00 555.45,378.00 C556.14,378.00 557.55,378.38 558.83,378.89 C556.07,378.14 551.09,378.27 542.38,378.96 C523.00,380.49 496.29,384.60 495.71,386.14 C495.59,386.44 499.39,392.90 504.14,400.51 C496.48,388.27 493.76,384.89 492.55,386.13 C492.35,386.33 496.45,393.25 501.66,401.50 C505.60,407.73 510.94,416.53 515.09,423.62 C511.61,417.74 507.33,410.68 503.60,404.68 L 492.51 386.87 L 489.01 387.52 C487.08,387.87 478.72,390.41 470.43,393.16 L 455.35 398.16 L 453.29 405.17 L 451.23 412.17 L 457.47 425.34 C458.28,427.04 459.11,428.81 459.94,430.57 C454.61,419.49 450.55,412.11 450.27,413.28 C450.04,414.25 453.67,423.20 458.36,433.16 C459.30,435.16 460.13,436.94 460.87,438.53 C460.24,437.17 459.53,435.68 458.75,434.03 C454.31,424.62 450.35,417.28 449.95,417.71 C449.24,418.48 441.83,448.59 440.42,456.40 L 439.72 460.30 L 443.61 459.71 C444.61,459.56 446.31,459.31 448.29,459.02 C439.68,460.33 437.78,461.13 439.76,462.35 C440.07,462.54 443.31,462.31 447.64,461.83 C440.34,462.85 439.00,463.38 439.00,464.47 C439.00,465.83 458.29,480.93 471.87,490.20 C477.84,494.27 480.19,495.50 481.36,495.04 C481.27,495.10 481.18,495.16 481.09,495.23 C480.09,495.92 478.93,497.98 478.36,499.97 C478.50,498.53 478.34,497.34 477.97,497.20 C476.09,496.47 466.48,489.72 453.11,479.74 C445.18,473.82 438.51,469.16 438.29,469.38 C437.67,470.00 435.04,488.07 435.02,491.86 C435.00,494.30 435.71,495.77 437.62,497.27 C439.06,498.41 440.90,500.90 441.70,502.82 L 443.15 506.31 L 458.33 505.65 C473.05,505.02 476.58,504.79 477.71,502.76 C477.42,504.02 477.17,505.03 477.09,505.33 C476.97,505.74 477.46,506.54 478.27,507.47 L 460.16 507.85 C445.05,508.16 442.00,508.47 442.00,509.69 C442.00,511.29 437.28,516.41 435.15,517.12 C433.04,517.82 436.70,534.94 439.43,537.15 C440.57,538.07 441.26,539.07 440.97,539.36 C440.67,539.66 437.45,540.21 433.81,540.58 C431.66,540.80 430.17,540.93 428.91,540.87 C428.97,540.80 429.00,540.71 429.00,540.59 C429.00,540.43 426.99,538.94 424.11,536.96 L 428.50 539.88 L 431.00 537.69 C432.37,536.49 433.62,535.45 433.77,535.39 C433.92,535.33 433.50,531.23 432.82,526.27 C431.61,517.40 431.54,517.23 428.33,516.07 C423.89,514.47 421.00,510.54 421.00,506.12 C420.99,502.79 420.65,502.36 416.60,500.69 C414.18,499.70 408.06,496.44 402.99,493.44 C397.93,490.45 393.61,488.00 393.39,488.00 C392.61,488.00 393.02,496.48 394.11,502.92 C394.73,506.54 396.05,510.85 397.06,512.50 C397.90,513.87 399.49,515.78 401.51,517.94 C398.62,515.10 396.47,513.20 396.29,513.38 C394.67,514.99 403.05,524.11 411.91,531.27 C410.61,530.24 409.36,529.21 408.25,528.25 C404.26,524.77 401.00,522.33 401.00,522.82 C401.00,523.30 404.15,527.34 408.00,531.79 C411.85,536.24 414.64,540.11 414.20,540.38 C412.30,541.55 408.17,537.92 401.83,529.50 C392.75,517.45 385.97,504.83 381.36,491.38 C378.11,481.90 377.16,480.12 374.88,479.26 C369.01,477.05 367.57,469.64 372.39,466.48 C374.44,465.14 374.50,464.61 373.80,454.79 C372.56,437.35 375.05,419.84 381.62,399.77 C383.96,392.63 384.03,391.88 382.57,389.80 C378.62,384.16 382.82,376.31 389.29,377.26 C391.64,377.60 392.39,377.15 393.69,374.59 C396.58,368.93 406.28,355.78 412.35,349.28 C416.21,345.16 418.39,341.96 418.46,340.33 C418.60,337.21 421.42,335.00 425.25,335.00 C426.92,335.00 430.47,333.40 433.80,331.14 C440.71,326.46 454.50,319.06 462.00,316.02 C465.65,314.55 468.18,312.73 469.52,310.65 C471.86,306.98 475.11,306.19 478.54,308.44 C480.78,309.90 481.86,309.87 492.16,308.01 C504.75,305.75 515.25,305.49 529.94,307.09 C536.76,307.83 539.15,307.96 540.53,307.33 C540.49,307.37 540.45,307.41 540.40,307.45 C538.66,309.20 540.99,315.19 544.00,316.71 C544.21,316.81 544.39,316.91 544.57,317.00 L 544.76 317.10 C543.23,316.54 541.77,315.30 540.55,313.44 L 538.76 310.70 L 526.19 311.34 C512.67,312.03 508.56,313.39 516.63,314.52 C521.14,315.16 526.08,316.09 531.07,317.20 C518.26,314.60 513.00,313.83 513.00,314.56 C513.00,315.56 515.73,317.93 516.27,317.40 C516.27,317.40 516.28,317.39 516.29,317.39 L 521.02 321.42 C524.94,324.77 527.23,326.00 529.56,326.00 C531.30,326.00 533.85,326.88 535.22,327.96 C537.21,329.52 539.63,329.99 547.11,330.25 C552.27,330.44 558.30,330.66 560.50,330.76 C562.94,330.86 563.88,330.90 563.65,330.57 C563.88,330.79 564.00,330.99 564.00,331.16 C564.00,332.49 570.32,332.07 572.24,330.62 ZM 456.00 565.29 C411.43,573.52 380.94,554.54 377.59,516.48 C376.94,509.00 377.85,509.68 380.07,518.33 C381.68,524.63 387.63,533.74 392.78,537.83 C395.03,539.61 399.94,542.48 403.69,544.20 C409.68,546.95 411.83,547.38 421.60,547.78 C439.19,548.51 456.06,544.35 477.50,534.00 C509.21,518.69 540.99,491.98 563.73,461.50 C584.43,433.75 601.86,400.03 610.30,371.39 L 611.81 366.28 L 601.95 364.64 C596.53,363.74 590.57,363.00 588.71,363.00 C586.85,363.00 585.00,362.67 584.59,362.26 C584.18,361.85 587.83,357.69 592.70,353.01 C597.57,348.33 610.02,335.80 620.37,325.17 C630.71,314.54 639.30,305.99 639.45,306.17 C639.61,306.35 642.54,318.42 645.97,333.00 C649.40,347.58 653.98,366.87 656.14,375.87 C658.31,384.88 659.91,392.42 659.71,392.63 C659.50,392.83 656.44,390.68 652.92,387.85 C643.29,380.12 636.05,375.54 635.09,376.59 C634.62,377.09 633.45,379.98 632.49,383.00 C629.68,391.77 623.63,406.53 617.51,419.50 C595.94,465.24 565.25,503.71 528.00,531.68 C506.43,547.88 477.71,561.28 456.00,565.29 ZM 432.27 375.40 C432.60,375.07 432.20,373.38 431.38,371.65 C430.78,370.39 430.45,369.55 430.39,368.71 C430.46,369.57 430.80,370.44 431.44,371.79 L 433.00 375.07 L 438.75 371.20 C441.91,369.07 447.87,365.34 452.00,362.91 L 459.50 358.50 L 455.51 358.18 C453.31,358.00 447.34,358.60 442.23,359.52 C441.03,359.74 439.98,359.93 439.07,360.10 C439.85,359.95 440.73,359.79 441.72,359.61 C446.55,358.72 452.19,358.00 454.25,358.00 C456.92,358.00 458.00,357.57 458.00,356.50 C458.00,355.37 457.41,354.92 454.21,355.16 C458.22,354.48 459.20,353.86 459.87,352.38 C460.44,351.15 462.23,349.15 463.87,347.94 L 466.84 345.74 L 464.15 340.59 C466.36,344.39 467.86,346.00 469.16,346.00 C470.87,346.00 470.95,345.81 469.73,344.58 C468.31,343.17 465.90,338.87 463.96,334.80 C464.05,334.97 464.14,335.15 464.23,335.33 C466.48,339.64 468.95,343.80 469.73,344.58 C471.90,346.76 472.60,346.37 475.57,341.25 C479.77,334.03 482.79,330.09 489.41,323.25 L 495.44 317.00 L 487.97 317.03 C482.93,317.05 479.86,317.55 478.52,318.56 C476.44,320.13 471.07,319.64 469.88,317.78 C469.05,316.47 464.41,318.98 463.26,321.00 C463.61,319.44 463.25,319.36 461.65,319.72 C458.22,320.49 451.00,323.94 451.00,324.81 C451.00,325.22 451.17,325.64 451.48,326.04 C449.76,324.63 448.68,325.26 437.75,332.24 C431.04,336.53 430.00,337.58 430.00,340.06 C430.00,341.63 429.14,343.73 428.09,344.71 C427.04,345.69 425.96,347.93 425.69,349.69 C425.62,350.12 425.57,350.50 425.55,350.83 C425.57,350.45 425.62,350.01 425.69,349.51 C426.06,346.78 425.81,346.00 424.58,346.00 C423.41,346.00 423.00,347.01 423.00,349.88 C423.00,349.92 423.00,349.96 423.00,350.00 C422.97,344.41 420.40,346.66 414.66,357.28 C412.65,361.02 411.00,364.51 411.00,365.06 C411.00,365.49 411.86,365.42 413.04,364.94 C412.44,365.31 411.76,365.69 410.97,366.10 C407.96,367.70 406.09,369.00 406.81,369.00 C407.53,369.00 407.84,369.45 407.50,370.00 C406.51,371.60 407.84,371.18 412.67,368.35 C413.38,367.93 414.05,367.58 414.65,367.29 C413.98,367.63 413.24,368.05 412.41,368.56 C408.42,371.04 407.38,372.36 405.79,377.00 C403.98,382.26 400.84,394.86 399.62,401.75 C399.31,403.54 399.15,404.99 399.27,404.99 C399.40,404.98 403.73,400.92 408.91,395.96 C414.08,391.00 421.14,384.65 424.58,381.86 L 430.86 376.77 L 430.07 375.11 C430.80,376.17 431.46,376.21 432.27,375.40 ZM 411.00 494.95 C416.23,497.69 420.84,499.95 421.25,499.97 C422.85,500.04 421.82,497.48 417.12,489.64 C414.43,485.16 411.25,479.54 410.04,477.13 C408.94,474.96 407.08,472.32 405.69,470.94 C408.05,472.64 410.89,472.94 412.92,471.88 L 411.10 473.50 L 415.69 482.00 C418.21,486.67 421.34,491.89 422.64,493.60 C424.85,496.49 425.24,496.63 428.37,495.65 L 431.74 494.59 L 433.76 480.55 C433.81,480.16 433.87,479.78 433.92,479.41 C435.22,470.39 435.79,466.45 434.16,465.05 C433.26,464.27 431.70,464.27 429.22,464.62 C430.06,464.45 430.72,464.29 431.06,464.16 C432.59,463.58 432.49,463.27 430.23,461.58 C428.82,460.52 428.00,460.19 428.39,460.83 C428.75,461.40 428.60,461.88 428.07,462.02 C428.38,461.56 424.05,456.89 418.08,451.27 L 417.66 450.87 C405.64,439.56 403.37,437.42 401.79,437.85 C401.41,437.95 401.06,438.21 400.63,438.53 C398.90,439.79 398.90,440.14 400.47,445.68 C401.37,448.88 402.83,453.42 403.70,455.77 C405.20,459.82 405.45,460.01 408.49,459.44 C409.89,459.17 410.92,459.18 411.94,459.57 C410.52,459.21 408.92,459.37 406.98,460.01 C404.09,460.96 403.36,461.66 403.74,463.10 C403.86,463.59 403.76,464.07 403.47,464.52 C403.51,463.24 402.66,460.15 401.20,456.34 C399.54,452.03 397.86,446.81 397.48,444.75 C395.99,436.78 394.59,441.65 393.34,459.15 L 392.72 467.80 L 394.52 467.46 C393.89,467.73 393.33,468.10 393.00,468.50 C391.94,469.78 392.18,469.99 394.63,469.90 C395.19,469.88 395.86,469.82 396.56,469.73 L 392.50 470.64 L 392.20 476.78 L 391.91 482.91 L 396.70 486.45 C399.34,488.39 405.77,492.22 411.00,494.95 ZM 449.24 409.42 C449.53,409.14 449.36,408.37 448.95,407.45 C449.20,407.80 449.39,408.00 449.48,408.00 C450.04,408.00 452.05,400.71 451.61,400.28 C451.43,400.09 450.08,400.40 448.61,400.96 C446.01,401.95 445.97,402.04 447.47,404.94 C446.67,403.86 445.81,403.01 445.25,403.01 C443.61,403.00 443.67,403.62 445.66,407.00 C444.32,405.27 442.85,404.00 442.10,404.00 C440.20,404.00 413.86,418.20 409.61,421.51 C407.43,423.22 406.67,424.71 406.51,427.63 C406.39,429.76 405.97,432.44 405.57,433.58 C404.97,435.32 406.56,437.23 415.18,445.11 C420.85,450.31 427.20,456.01 429.28,457.78 C434.98,462.63 436.63,462.15 438.02,455.25 C439.82,446.32 446.94,417.81 448.11,414.85 C448.89,412.89 448.79,411.85 447.22,409.30 C447.99,410.16 448.55,410.12 449.24,409.42 ZM 443.65 396.75 C443.42,396.20 443.18,395.65 442.93,395.10 C444.21,397.41 445.19,398.88 445.50,398.88 C446.05,398.86 448.01,398.30 449.85,397.63 C453.05,396.48 453.46,395.72 458.57,381.46 C461.52,373.23 463.95,366.21 463.97,365.87 C463.98,365.52 462.87,364.49 461.50,363.59 C459.22,362.09 458.73,362.09 455.97,363.51 C450.87,366.15 436.23,375.82 435.46,377.06 C435.15,377.57 436.26,380.93 438.08,385.14 C435.84,380.99 433.91,378.00 433.28,378.00 C432.58,378.00 432.00,378.22 432.00,378.49 C432.00,379.00 432.81,380.86 434.00,383.28 C432.92,381.32 432.10,380.00 431.88,380.00 C430.42,380.00 419.09,389.70 409.25,399.38 C399.43,409.04 399.00,409.64 399.00,413.73 C399.00,416.69 399.42,418.00 400.38,418.00 C401.14,418.00 402.32,418.67 403.00,419.50 C403.68,420.33 404.49,421.00 404.79,421.00 C405.09,421.00 408.52,419.03 412.42,416.62 C416.31,414.21 424.45,409.64 430.50,406.45 C436.55,403.27 441.70,400.50 441.95,400.30 C442.27,400.04 439.77,394.58 437.18,389.38 C440.08,394.72 443.21,400.00 443.74,400.00 C444.77,400.00 444.75,399.35 443.65,396.75 ZM 600.00 548.29 C600.00,549.60 616.58,533.51 618.13,530.70 C619.05,529.03 618.83,529.05 615.21,530.89 C614.75,531.13 614.30,531.39 613.88,531.67 C613.78,531.54 613.55,531.37 613.20,531.14 C612.48,530.69 611.83,529.35 611.74,528.16 C611.65,526.97 611.14,526.00 610.62,526.00 C610.47,526.00 610.27,525.95 610.05,525.86 C611.53,526.09 613.40,524.98 616.38,522.33 C624.27,515.32 630.96,506.70 630.37,504.33 C629.48,500.78 630.97,497.91 634.46,496.45 C637.97,494.99 638.97,492.11 638.99,483.36 C638.99,481.91 638.94,480.94 638.73,480.26 C638.91,480.70 639.00,481.21 639.00,481.80 C639.00,484.33 639.03,484.34 640.75,482.44 C643.12,479.81 645.19,474.37 645.74,469.33 C646.14,465.61 645.89,464.98 643.34,463.39 C641.87,462.46 640.51,461.60 640.19,461.40 C640.50,461.60 641.80,462.42 643.19,463.29 L 645.88 464.97 L 646.57 460.39 C648.23,449.34 645.40,414.06 642.63,411.30 C642.36,411.02 641.64,412.76 641.03,415.15 C640.43,417.54 638.72,422.42 637.24,426.00 C633.96,433.90 633.00,431.62 635.85,422.73 C639.99,409.84 640.86,405.51 640.28,400.60 C639.44,393.43 641.43,395.48 644.36,404.79 C652.09,429.39 651.93,460.35 643.95,486.26 C641.66,493.66 641.19,496.48 641.97,497.94 C644.62,502.89 641.98,509.00 637.19,509.00 C635.67,509.00 634.41,510.24 632.87,513.25 C627.21,524.37 612.91,542.78 605.63,548.33 C603.15,550.23 602.33,551.29 601.98,553.83 C601.68,552.27 600.98,550.85 599.85,549.87 C596.88,547.29 592.83,547.69 590.08,549.87 C591.34,548.73 592.84,548.00 594.29,548.00 C595.89,548.00 597.07,547.14 597.85,545.43 C598.74,543.47 598.79,542.16 598.14,541.51 C600.16,541.80 602.51,541.66 604.59,540.97 C604.61,540.96 604.64,540.95 604.67,540.94 C601.94,542.37 600.00,545.38 600.00,548.29 ZM 319.96 664.25 C318.86,670.73 318.71,671.00 315.98,671.00 C315.85,671.00 315.72,671.00 315.60,671.00 C314.96,671.01 314.46,671.01 314.03,670.83 C312.46,670.15 312.02,666.89 309.54,651.50 C308.13,642.70 306.71,634.23 306.39,632.68 C305.84,629.99 305.96,629.87 309.15,630.18 L 312.49 630.50 L 313.67 638.50 C314.32,642.90 314.90,648.75 314.96,651.50 C315.09,657.72 316.46,655.76 317.41,648.00 C317.78,644.97 318.56,639.69 319.14,636.25 C320.16,630.28 320.33,630.00 323.08,630.00 L 323.19 630.00 C324.03,630.00 324.65,630.00 325.13,630.25 C326.49,630.96 326.81,633.63 328.10,643.75 C328.75,648.84 329.58,653.00 329.94,653.00 C330.31,653.00 331.17,648.47 331.86,642.93 C333.40,630.59 333.62,630.00 336.61,630.00 C339.71,630.00 339.70,630.40 336.00,652.33 C334.35,662.12 333.00,670.33 333.00,670.57 C333.00,670.80 331.66,671.00 330.02,671.00 C329.91,671.00 329.81,671.00 329.72,671.00 C328.89,671.00 328.30,671.01 327.84,670.76 C326.64,670.13 326.33,667.82 325.00,659.50 C323.09,647.52 322.78,646.83 321.89,652.50 C321.45,655.25 320.58,660.54 319.96,664.25 ZM 426.15 669.92 C425.04,670.51 421.18,671.00 417.57,671.00 L 411.00 671.00 L 411.00 630.00 L 417.05 630.00 C424.44,630.00 428.42,631.89 429.89,636.12 C430.50,637.87 431.00,644.42 431.00,650.68 C431.00,662.92 429.72,668.01 426.15,669.92 ZM 357.02 670.49 C352.35,672.91 348.16,672.08 344.50,668.01 C342.68,665.99 342.50,664.38 342.50,650.48 C342.50,635.64 342.58,635.08 344.92,632.58 C348.33,628.95 355.98,628.89 359.55,632.45 C361.93,634.84 362.00,635.31 362.00,650.02 C362.00,658.47 361.55,665.98 360.97,667.06 C360.40,668.11 358.63,669.66 357.02,670.49 ZM 476.26 347.18 C478.24,348.44 479.03,348.23 489.53,343.63 C500.36,338.87 512.79,334.51 518.53,333.43 C520.97,332.97 522.51,331.98 523.23,330.40 C524.52,327.55 523.94,326.74 516.37,320.90 C511.03,316.78 510.75,316.69 507.35,317.92 C505.41,318.62 502.35,318.91 500.55,318.58 C497.51,318.00 496.83,318.43 491.25,324.40 C483.22,332.98 474.58,346.11 476.26,347.18 ZM 721.47 662.50 L 720.76 671.00 L 715.00 671.00 L 715.00 630.00 L 720.53 630.00 C728.10,630.00 732.44,631.97 733.86,636.04 C735.57,640.94 735.24,645.80 732.91,649.95 L 730.82 653.67 L 732.94 660.58 C734.10,664.39 735.30,668.29 735.60,669.25 C736.03,670.67 735.51,671.00 732.80,671.00 C729.46,671.00 729.46,671.00 727.12,662.50 C725.71,657.41 724.25,654.00 723.48,654.00 C722.57,654.00 721.97,656.57 721.47,662.50 ZM 246.22 659.75 L 245.93 671.00 L 240.00 671.00 L 240.00 629.87 L 243.16 630.19 C246.12,630.48 246.49,630.97 248.71,637.50 C250.01,641.35 251.63,646.75 252.29,649.50 C253.49,654.46 253.50,654.40 254.00,642.50 C254.49,630.78 254.56,630.49 256.89,630.16 C258.20,629.98 259.67,630.43 260.14,631.16 C261.05,632.55 261.15,662.05 260.27,667.75 C259.85,670.52 259.36,671.00 256.97,671.00 C254.29,671.00 253.99,670.50 250.33,659.75 L 246.50 648.50 ZM 373.00 662.50 L 373.00 671.00 L 367.00 671.00 L 367.00 629.78 L 374.61 630.17 C383.44,630.61 385.45,632.17 386.53,639.37 C387.17,643.60 385.19,650.65 382.98,652.01 C382.07,652.58 385.20,665.55 387.15,669.25 C387.94,670.76 387.59,671.00 384.56,671.00 C381.07,671.00 381.05,670.97 378.95,663.75 C377.78,659.76 376.66,655.94 376.45,655.25 C376.24,654.56 375.37,654.00 374.53,654.00 C373.28,654.00 373.00,655.53 373.00,662.50 ZM 650.22 659.25 L 649.94 671.00 L 644.00 671.00 L 644.00 629.87 L 647.19 630.19 C650.30,630.49 650.46,630.76 653.91,641.25 C655.84,647.16 657.78,652.00 658.22,652.00 C658.65,652.00 659.00,647.05 659.00,641.00 L 659.00 630.00 L 664.85 630.00 L 664.94 643.25 C664.99,650.54 664.73,659.76 664.38,663.75 C663.77,670.45 663.55,671.00 661.43,671.00 C659.14,671.00 657.21,667.07 651.87,651.50 C650.54,647.62 650.49,647.85 650.22,659.25 ZM 499.00 655.00 L 499.00 671.00 L 493.00 671.00 L 493.00 630.00 L 499.25 630.01 C502.69,630.02 506.62,630.60 508.00,631.29 C511.19,632.91 513.31,639.10 512.68,644.97 C512.06,650.70 507.69,655.00 502.48,655.00 ZM 550.61 666.75 C549.81,670.55 549.41,671.00 546.86,671.00 C545.29,671.00 544.00,670.69 544.00,670.32 C544.00,668.74 551.19,631.50 551.63,630.78 C551.90,630.35 553.61,630.00 555.43,630.00 L 558.75 630.00 L 562.38 648.76 C564.37,659.08 566.00,668.30 566.00,669.26 C566.00,670.51 565.19,671.00 563.11,671.00 C560.45,671.00 560.17,670.64 559.54,666.44 C558.86,661.91 558.84,661.89 555.18,662.19 C551.73,662.48 551.44,662.77 550.61,666.75 ZM 474.00 668.08 C474.00,670.73 473.69,671.00 470.64,671.00 C467.53,671.00 467.31,670.80 467.74,668.25 C468.46,664.01 473.98,634.79 474.54,632.25 C474.94,630.44 475.72,630.00 478.52,630.00 C480.43,630.00 482.00,630.14 482.00,630.32 C482.00,630.50 483.80,639.58 486.00,650.50 C488.20,661.42 490.00,670.50 490.00,670.68 C490.00,670.86 488.68,671.00 487.07,671.00 C484.09,671.00 483.91,670.75 482.57,664.75 C482.05,662.41 481.45,662.00 478.59,662.00 C474.92,662.00 474.00,663.23 474.00,668.08 ZM 704.39 671.04 C699.72,672.82 695.24,671.60 692.61,667.85 C691.28,665.95 691.00,662.49 691.00,647.78 L 691.00 630.00 L 697.00 630.00 L 697.00 647.43 C697.00,664.12 697.09,664.89 699.05,665.52 C703.47,666.92 704.00,664.92 704.00,646.88 L 704.00 630.00 L 710.00 630.00 L 710.00 647.05 C710.00,665.71 709.18,669.22 704.39,671.04 ZM 389.00 469.31 C389.00,468.62 388.48,468.25 387.77,468.15 C389.10,467.80 390.01,466.95 390.03,465.64 C390.05,464.46 390.69,458.21 391.46,451.76 L 392.86 440.01 L 389.93 437.08 C388.21,435.36 387.00,433.09 387.00,431.58 C387.00,427.28 385.54,428.63 381.51,436.67 C377.38,444.93 376.34,450.62 377.43,459.20 C377.97,463.54 378.63,464.88 381.04,466.58 C382.68,467.73 384.54,468.30 386.14,468.33 C385.21,468.64 384.37,469.26 384.21,470.12 C384.03,471.05 384.28,471.43 385.23,471.41 C382.24,472.44 382.20,475.24 385.75,477.88 C389.63,480.78 390.00,480.57 390.00,475.50 C390.00,471.73 389.69,471.00 388.08,471.00 C387.79,471.00 387.51,471.01 387.25,471.03 C388.26,470.64 389.00,469.95 389.00,469.31 ZM 459.94 670.53 C455.11,673.03 450.69,671.96 447.14,667.45 C445.19,664.97 445.00,663.52 445.00,650.82 C445.00,634.80 445.91,631.84 451.40,630.03 C458.67,627.63 464.99,632.39 465.00,640.25 C465.00,642.64 464.61,643.00 462.00,643.00 C459.53,643.00 459.00,642.59 459.00,640.69 C459.00,637.10 456.73,634.63 454.17,635.44 C452.07,636.11 452.00,636.63 452.00,650.50 C452.00,664.37 452.07,664.89 454.17,665.56 C456.86,666.41 459.00,663.85 459.00,659.81 C459.00,657.35 459.38,657.00 462.00,657.00 C464.63,657.00 465.00,657.35 465.00,659.85 C465.00,664.64 462.94,668.98 459.94,670.53 ZM 776.35 669.09 C771.89,673.56 761.79,671.44 760.55,665.78 C759.30,660.06 759.43,659.51 762.09,659.20 C764.27,658.95 764.83,659.43 765.63,662.19 C766.64,665.74 769.18,666.92 771.55,664.96 C774.59,662.44 773.21,658.88 766.50,651.93 C760.10,645.29 760.00,645.11 760.00,639.67 C760.00,634.89 760.36,633.86 762.63,632.07 C764.47,630.63 766.73,630.00 770.06,630.00 C774.05,630.00 775.20,630.44 776.93,632.63 C778.11,634.14 779.00,636.74 779.00,638.70 C779.00,641.85 778.78,642.11 776.25,641.82 C774.31,641.59 773.41,640.86 773.19,639.32 C772.72,636.04 770.56,634.63 768.06,635.97 C764.32,637.97 765.52,641.47 772.61,649.19 L 779.22 656.39 L 778.77 661.76 C778.48,665.31 777.66,667.78 776.35,669.09 ZM 615.41 652.25 L 611.71 671.00 L 608.37 671.00 C605.73,671.00 604.93,670.53 604.54,668.75 C604.26,667.51 602.66,659.08 600.97,650.00 C599.28,640.92 597.67,632.71 597.38,631.75 C596.96,630.33 597.50,630.00 600.25,630.00 L 603.63 630.00 L 605.47 641.75 C606.48,648.21 607.63,654.62 608.02,656.00 C608.27,656.87 608.42,657.56 608.60,657.57 C608.98,657.59 609.50,654.57 611.33,643.84 C611.48,642.95 611.64,642.00 611.81,641.00 L 613.61 630.50 L 616.89 630.18 C619.67,629.91 620.10,630.14 619.65,631.68 C619.35,632.68 617.45,641.94 615.41,652.25 ZM 283.00 668.50 C283.00,670.97 282.89,671.00 274.67,671.00 C270.08,671.00 266.03,670.70 265.67,670.33 C265.30,669.97 265.00,660.74 265.00,649.83 L 265.00 630.00 L 283.00 630.00 L 283.00 633.00 C283.00,635.97 282.94,636.00 277.50,636.00 L 272.00 636.00 L 272.00 648.00 L 276.57 648.00 C280.96,648.00 281.12,648.11 280.82,650.75 C280.53,653.21 280.05,653.53 276.25,653.81 L 272.00 654.11 L 272.00 666.00 L 277.50 666.00 C282.70,666.00 283.00,666.14 283.00,668.50 ZM 757.00 668.50 C757.00,670.98 756.93,671.00 748.00,671.00 L 739.00 671.00 L 739.00 630.00 L 757.13 630.00 L 756.82 632.75 C756.52,635.36 756.20,635.52 750.64,635.80 L 744.77 636.11 L 745.39 639.18 C745.72,640.87 746.00,643.54 746.00,645.12 C746.00,647.87 746.21,648.00 750.50,648.00 C754.63,648.00 755.00,648.20 755.00,650.50 C755.00,652.80 754.63,653.00 750.50,653.00 L 746.00 653.00 L 746.00 666.00 L 751.50 666.00 C756.70,666.00 757.00,666.14 757.00,668.50 ZM 542.67 577.25 C543.28,578.28 543.40,578.26 551.12,575.96 C560.26,573.24 570.92,568.65 579.74,563.62 C586.42,559.82 586.98,559.25 586.99,556.20 C586.99,555.86 587.02,555.52 587.07,555.17 C587.03,555.51 587.01,555.85 587.02,556.20 C587.03,560.12 587.68,561.18 591.00,562.71 C591.05,562.73 591.10,562.75 591.14,562.78 C588.93,562.44 586.49,563.56 576.89,568.44 C569.96,571.96 559.81,576.26 554.33,577.99 C546.49,580.48 544.73,581.19 543.85,583.12 C544.07,579.49 541.55,575.52 538.16,574.35 C539.98,574.45 540.75,573.82 542.13,571.59 C545.11,566.77 545.51,564.09 543.46,562.60 C541.84,561.41 542.13,560.94 546.93,557.15 C549.82,554.87 552.61,553.00 553.13,553.00 C553.66,553.00 555.01,553.86 556.14,554.92 C558.18,556.82 558.29,556.80 566.08,553.47 C575.85,549.28 576.81,548.79 585.75,543.27 C590.13,540.57 592.55,538.78 592.99,537.85 C593.19,538.12 593.33,538.47 593.47,538.90 C593.76,539.83 594.78,540.57 596.16,541.04 C594.40,541.23 591.75,542.38 588.44,544.49 C581.94,548.66 569.40,554.99 562.66,557.52 C559.56,558.69 557.51,560.16 556.96,561.61 C555.99,564.15 553.13,566.00 550.16,566.00 C548.83,566.00 547.22,567.70 545.21,571.25 C543.57,574.14 542.43,576.84 542.67,577.25 ZM 641.00 668.55 C641.00,670.97 640.88,671.00 632.00,671.00 L 623.00 671.00 L 623.00 630.00 L 640.00 630.00 L 640.00 633.00 C640.00,635.97 639.95,636.00 634.45,636.00 L 628.90 636.00 L 629.20 641.75 L 629.50 647.50 L 633.75 647.81 C637.51,648.08 638.00,648.40 638.00,650.56 C638.00,652.79 637.61,653.00 633.45,653.00 L 628.90 653.00 L 629.50 665.50 L 635.25 665.80 C640.60,666.08 641.00,666.27 641.00,668.55 ZM 401.56 375.97 C405.36,372.77 404.98,370.94 402.02,372.60 C404.64,370.35 406.55,367.61 409.10,362.65 C411.31,358.33 412.92,354.58 412.66,354.33 C411.99,353.66 401.83,366.65 398.56,372.36 L 396.38 376.19 C395.94,376.33 395.62,376.35 395.48,376.22 C395.04,375.83 394.98,376.02 395.35,376.66 C395.71,377.31 395.48,378.01 394.83,378.22 C394.17,378.44 393.98,379.16 394.41,379.86 C395.08,380.94 395.41,381.04 398.64,378.40 C396.22,380.56 395.45,381.91 395.72,383.34 C396.45,387.15 394.30,390.85 390.41,392.47 L 386.74 394.01 L 387.41 399.25 C387.77,402.14 388.56,407.09 389.16,410.25 C389.77,413.41 390.55,416.00 390.91,416.00 C392.72,416.00 395.68,408.35 397.68,398.50 C398.91,392.45 400.84,384.84 401.96,381.59 C403.08,378.34 404.00,375.28 404.00,374.79 C404.00,374.39 402.67,375.15 400.87,376.56 C401.09,376.37 401.32,376.17 401.56,375.97 ZM 298.00 636.00 L 298.00 671.00 L 292.00 671.00 L 292.00 636.00 L 288.50 636.00 C285.28,636.00 285.00,635.76 285.00,633.00 L 285.00 630.00 L 305.00 630.00 L 305.00 633.00 C305.00,635.76 304.72,636.00 301.50,636.00 ZM 681.00 636.00 L 681.00 671.00 L 675.00 671.00 L 675.00 636.00 L 671.50 636.00 C668.28,636.00 668.00,635.76 668.00,633.00 L 668.00 630.00 L 688.00 630.00 L 688.00 633.00 C688.00,635.76 687.72,636.00 684.50,636.00 ZM 539.00 636.00 L 539.00 671.00 L 533.00 671.00 L 533.00 636.13 L 529.75 635.81 C527.04,635.55 526.45,635.04 526.18,632.75 L 525.87 630.00 L 546.00 630.00 L 546.00 633.00 C546.00,635.76 545.72,636.00 542.50,636.00 ZM 587.00 668.55 C587.00,670.96 586.85,671.00 578.50,671.00 L 570.00 671.00 L 570.00 630.00 L 575.95 630.00 L 576.50 665.50 L 581.75 665.80 C586.57,666.08 587.00,666.30 587.00,668.55 ZM 408.00 668.50 C408.00,670.97 407.90,671.00 399.50,671.00 L 391.00 671.00 L 391.00 630.00 L 397.00 630.00 L 397.00 647.38 C397.00,664.57 397.03,664.77 399.25,665.37 C400.49,665.70 402.96,665.98 404.75,665.99 C407.55,666.00 408.00,666.35 408.00,668.50 ZM 523.00 630.00 L 523.00 671.00 L 517.00 671.00 L 517.00 630.00 ZM 377.03 435.34 L 377.05 439.50 L 380.78 432.50 C382.82,428.65 385.53,424.05 386.79,422.29 C389.02,419.16 389.04,418.95 387.54,413.15 C386.69,409.88 386.00,405.81 386.00,404.11 C386.00,402.40 385.62,401.00 385.15,401.00 C383.17,401.00 376.97,427.22 377.03,435.34 ZM 417.67 665.33 C418.69,666.35 420.44,666.13 422.34,664.74 C423.85,663.64 424.03,661.80 423.78,649.99 L 423.50 636.50 L 417.00 635.87 L 417.00 650.27 C417.00,658.19 417.30,664.97 417.67,665.33 ZM 350.20 664.80 C350.86,665.46 351.93,666.00 352.58,666.00 C355.48,666.00 356.06,663.09 355.78,649.86 L 355.50 636.50 L 349.00 635.87 L 349.00 649.74 C349.00,659.19 349.38,663.98 350.20,664.80 ZM 426.92 511.08 C430.49,514.64 433.31,514.78 436.55,511.55 C439.22,508.87 439.63,506.07 437.85,502.68 C436.31,499.75 435.05,499.03 431.50,499.03 C427.95,499.03 426.69,499.75 425.15,502.68 C423.37,506.07 423.76,507.91 426.92,511.08 ZM 464.00 361.00 C465.20,362.20 467.33,363.00 469.33,363.00 C475.98,363.00 479.84,354.72 475.01,350.81 C468.01,345.14 457.69,354.69 464.00,361.00 ZM 392.63 434.93 C395.65,437.30 396.36,437.41 399.15,435.92 C401.65,434.58 404.20,428.73 403.34,426.31 C401.34,420.70 396.49,419.42 392.45,423.45 C389.01,426.90 389.10,432.14 392.63,434.93 ZM 538.31 589.07 C536.87,589.37 535.31,589.19 533.86,588.43 C532.42,587.68 530.99,586.43 530.70,585.65 C530.25,584.49 527.32,584.32 514.33,584.68 C499.87,585.08 498.67,584.99 500.44,583.56 C501.85,582.42 504.85,581.97 511.44,581.90 C516.42,581.85 521.62,581.47 523.00,581.06 L 525.50 580.31 L 522.26 578.41 C520.47,577.36 519.01,576.16 519.01,575.75 C518.99,574.28 522.77,575.03 525.27,577.00 L 525.39 577.09 C526.86,578.25 527.62,578.85 528.35,578.82 C529.13,578.78 529.88,578.03 531.43,576.48 C529.42,578.97 528.74,582.80 530.60,585.45 C532.53,588.20 535.59,589.42 538.31,589.07 ZM 386.24 493.25 C388.49,498.06 390.65,502.00 391.03,502.00 C391.42,502.00 391.36,500.09 390.91,497.75 C390.46,495.41 390.07,491.42 390.04,488.87 C390.00,484.24 388.56,482.36 382.14,478.55 C379.92,477.24 381.64,483.40 386.24,493.25 ZM 499.00 635.87 L 499.00 649.13 L 505.50 648.50 L 505.50 636.50 ZM 373.00 641.94 C373.00,648.00 373.00,648.00 375.98,648.00 C379.34,648.00 380.39,645.79 379.82,639.89 C379.54,636.88 379.14,636.47 376.25,636.19 L 373.00 635.87 ZM 722.67 648.33 C723.78,649.44 724.90,649.10 727.00,647.00 C730.55,643.45 728.88,636.00 724.52,636.00 C722.11,636.00 722.00,636.26 722.00,641.83 C722.00,645.04 722.30,647.97 722.67,648.33 ZM 605.38 523.00 C606.14,523.00 607.32,523.67 608.00,524.50 C605.61,522.37 601.94,522.35 598.77,523.78 C600.92,522.46 600.97,521.53 601.22,510.59 C601.42,502.14 601.86,498.54 602.75,498.25 C603.71,497.93 604.00,500.80 604.00,510.42 C604.00,520.44 604.28,523.00 605.38,523.00 ZM 571.06 395.04 C573.69,395.92 576.64,396.03 579.04,395.33 C577.56,395.93 576.37,396.43 576.25,396.50 C576.12,396.59 577.80,400.81 580.00,405.88 C583.86,414.79 584.89,419.00 583.19,419.00 C582.74,419.00 581.17,415.93 579.70,412.17 C575.03,400.19 573.06,396.27 571.06,395.04 ZM 501.01 315.71 C504.24,317.34 504.37,317.33 507.06,315.16 C511.60,311.48 505.48,306.14 500.48,309.42 C497.37,311.46 497.58,313.97 501.01,315.71 ZM 494.59 510.64 C494.89,510.39 495.20,510.13 495.50,509.86 C498.64,507.11 499.01,506.30 498.53,503.28 C498.34,502.05 497.98,500.61 497.60,499.48 C498.35,501.15 499.28,502.44 499.70,502.36 C500.14,502.29 504.10,501.94 508.50,501.59 C515.82,501.00 516.29,501.07 514.00,502.41 C512.62,503.21 508.69,504.18 505.25,504.55 C501.81,504.93 499.00,505.50 499.00,505.83 C499.00,506.16 500.24,507.41 501.75,508.62 C505.22,511.40 503.85,513.03 499.94,510.78 C497.45,509.35 496.95,509.20 494.59,510.64 ZM 496.00 316.58 C496.00,314.50 494.34,313.00 492.03,313.00 C485.92,313.00 480.00,314.30 480.00,315.64 C480.00,316.67 481.91,317.00 488.00,317.00 C492.40,317.00 496.00,316.81 496.00,316.58 ZM 612.00 529.00 C612.00,529.55 612.36,530.00 612.80,530.00 C614.62,530.00 622.83,524.04 624.71,521.37 C629.78,514.13 628.85,513.95 621.57,520.75 C617.29,524.74 613.39,528.00 612.90,528.00 C612.40,528.00 612.00,528.45 612.00,529.00 ZM 576.22 339.44 C577.68,340.47 578.19,340.88 578.72,340.91 C579.05,340.93 579.40,340.79 579.99,340.56 C580.12,340.51 580.26,340.45 580.42,340.39 C582.94,339.43 582.38,335.13 579.56,333.85 C574.52,331.55 571.70,336.27 576.22,339.44 ZM 587.00 379.72 C586.91,379.06 586.76,378.62 586.55,378.52 C585.89,378.19 586.00,377.77 586.84,377.39 C587.81,376.94 587.73,376.54 586.47,375.75 C587.63,376.42 591.11,376.98 594.25,376.99 C599.35,377.00 600.00,377.23 600.00,379.03 C600.00,380.93 599.58,381.01 593.50,380.39 ZM 552.88 656.55 C553.62,657.28 556.85,657.06 557.31,656.25 C557.89,655.23 555.77,643.00 555.02,643.00 C554.28,643.00 552.25,655.92 552.88,656.55 ZM 476.37 653.25 C475.90,655.69 476.14,656.00 478.48,656.00 C481.06,656.00 481.11,655.90 480.41,651.27 C480.02,648.67 479.39,645.41 479.01,644.02 C478.39,641.82 478.22,642.06 477.60,646.00 C477.21,648.47 476.66,651.74 476.37,653.25 ZM 597.02 524.75 C595.07,526.06 593.50,527.95 592.81,530.24 C592.47,531.38 592.24,532.19 591.79,532.84 C592.08,532.18 592.35,531.32 592.51,530.45 C593.00,527.79 592.59,527.22 588.28,524.56 C582.21,520.84 584.97,519.64 591.28,523.26 C594.54,525.13 595.40,525.50 597.02,524.75 ZM 422.15 343.11 C424.03,344.30 424.58,344.22 425.99,342.51 C427.77,340.37 426.45,337.80 423.76,338.18 C421.20,338.55 420.13,341.83 422.15,343.11 ZM 534.58 441.52 C535.74,440.69 544.06,428.57 551.51,417.23 C544.14,428.60 535.87,440.96 535.17,441.40 C535.06,441.46 534.86,441.50 534.58,441.52 ZM 509.94 361.04 C505.43,360.06 501.06,359.23 497.00,358.60 C492.52,357.90 489.20,357.39 486.76,357.04 C491.85,357.31 500.42,358.85 509.94,361.04 ZM 455.31 327.98 C455.45,327.99 455.59,328.00 455.72,328.00 C457.32,328.00 458.37,328.83 459.05,330.64 C459.26,331.17 459.67,332.07 460.21,333.17 C458.05,329.41 456.76,328.00 455.62,328.00 C455.52,328.00 455.42,327.99 455.31,327.98 ZM 505.47 363.07 C515.50,365.10 524.13,367.22 531.74,369.50 C523.95,367.32 514.41,364.99 505.47,363.07 ZM 417.17 467.34 C418.50,466.28 420.10,465.97 423.58,465.53 C423.88,465.50 424.18,465.46 424.47,465.42 C421.18,466.01 418.55,466.71 417.17,467.34 ZM 464.55 454.99 C463.98,455.92 463.57,456.61 463.54,456.68 C463.52,456.74 461.53,457.07 458.49,457.53 C462.27,456.90 463.53,456.37 464.55,454.99 ZM 567.44 329.52 C567.56,329.61 567.68,329.70 567.80,329.78 C567.48,329.60 567.12,329.39 566.74,329.15 C564.35,327.67 560.62,325.99 556.25,324.34 C561.43,326.19 565.46,328.01 567.44,329.52 ZM 490.00 516.50 C490.00,514.58 490.43,513.00 490.97,513.00 C491.08,513.00 491.28,512.93 491.54,512.80 C490.41,513.88 490.07,514.96 490.04,516.75 C490.02,518.54 489.55,520.00 489.00,520.00 C489.55,520.00 490.00,518.42 490.00,516.50 ZM 422.99 350.38 C422.94,352.92 422.40,354.09 420.78,355.22 C422.24,353.65 422.93,352.13 422.99,350.38 ZM 402.22 465.65 C400.98,466.41 399.11,466.93 397.01,466.99 L 397.57 466.89 C399.36,466.55 401.11,466.08 402.22,465.65 ZM 547.68 427.73 C552.61,420.41 558.52,411.24 562.43,404.83 C558.52,411.34 552.84,420.16 547.68,427.73 ZM 530.81 319.80 C538.85,321.53 547.23,323.88 553.56,326.05 C547.36,323.95 539.06,321.66 530.81,319.80 ZM 480.51 509.66 C482.51,511.40 484.84,512.97 485.92,513.00 C484.78,513.00 482.60,511.76 481.08,510.23 ZM 610.75 534.66 C611.70,533.12 612.73,531.99 613.27,531.98 C613.33,531.98 613.38,531.98 613.43,531.98 C612.34,532.77 611.42,533.69 610.75,534.66 ZM 541.99 306.18 C543.04,305.27 544.22,304.70 545.41,304.44 C544.30,304.84 543.05,305.47 541.99,306.18 ZM 420.32 463.11 C417.74,463.43 416.58,463.20 415.83,462.29 C417.14,463.19 418.21,463.37 420.32,463.11 ZM 461.66 325.44 C462.11,324.62 462.59,323.43 462.91,322.30 C462.94,322.21 462.97,322.11 462.99,322.02 C462.92,322.98 462.36,324.44 461.66,325.44 ZM 612.78 490.14 C610.29,491.26 608.36,491.99 607.69,491.99 C607.57,491.99 607.46,491.99 607.36,491.99 C608.44,491.85 610.29,491.22 612.78,490.14 ZM 420.81 368.88 C422.26,369.55 423.94,370.00 425.31,370.00 C426.92,370.00 427.90,370.68 428.74,372.42 C427.75,370.69 426.72,370.00 425.25,370.00 C423.90,370.00 422.25,369.55 420.81,368.88 ZM 638.02 479.20 C637.65,478.93 637.15,478.75 636.47,478.58 C636.03,478.47 635.60,478.42 635.18,478.42 C636.34,478.30 637.34,478.57 638.02,479.20 ZM 549.23 372.60 C547.17,371.79 544.99,370.99 542.71,370.20 C545.99,371.31 548.97,372.41 551.50,373.46 C550.78,373.20 550.03,372.91 549.23,372.60 ZM 586.13 389.74 C586.52,388.56 586.82,386.67 586.98,384.78 C586.90,386.74 586.55,388.78 586.13,389.74 ZM 528.09 439.75 C526.52,438.31 524.70,435.31 520.78,428.40 C524.57,435.08 526.52,438.22 528.09,439.75 ZM 435.67 357.73 C435.90,357.70 436.14,357.66 436.40,357.63 C437.54,357.46 439.63,357.17 442.07,356.84 C439.11,357.30 437.09,357.60 435.67,357.73 ZM 582.76 538.95 C587.13,537.77 589.61,537.17 591.08,537.13 C589.39,537.30 586.62,537.91 582.76,538.95 ZM 539.93 438.79 C537.14,442.87 537.26,443.53 538.43,445.21 C537.19,443.44 537.10,442.84 539.93,438.79 ZM 597.84 562.99 C596.76,563.71 595.99,563.96 594.99,563.84 C595.96,563.85 596.86,563.57 597.84,562.99 ZM 607.99 538.91 C608.73,538.15 609.38,537.20 610.00,535.99 C609.99,536.02 609.98,536.04 609.97,536.07 C609.53,537.13 608.85,538.10 607.99,538.91 ZM 417.72 358.87 C417.51,359.29 417.35,359.71 417.25,360.11 C417.18,360.39 417.10,360.65 417.00,360.91 C417.00,360.90 417.00,360.89 417.00,360.88 C417.00,360.37 417.27,359.65 417.72,358.87 ZM 425.28 540.00 C424.22,539.53 423.00,538.86 421.35,537.91 C420.72,537.55 419.98,537.10 419.18,536.57 C419.55,536.80 419.91,537.03 420.27,537.24 C422.25,538.44 423.94,539.36 425.28,540.00 ZM 630.71 480.41 C629.14,481.61 626.00,483.45 622.52,485.31 C626.13,483.35 629.41,481.40 630.71,480.41 ZM 564.00 396.97 L 566.05 393.13 L 566.08 393.18 ZM 568.46 539.53 C567.08,539.88 566.00,540.57 566.00,541.13 C566.00,540.53 567.01,539.83 568.25,539.57 ZM 578.09 357.35 C577.90,358.12 577.69,358.61 577.49,358.67 C577.44,358.69 577.39,358.69 577.35,358.67 C577.63,358.45 577.88,358.01 578.09,357.35 ZM 609.04 489.29 C610.91,488.14 613.79,486.57 617.80,484.50 C614.34,486.29 611.15,488.04 609.04,489.29 ZM 425.53 351.52 C425.56,352.47 425.94,352.95 426.89,353.41 C425.92,353.07 425.55,352.61 425.53,351.52 ZM 412.95 528.71 C410.50,526.65 408.04,524.45 406.00,522.45 C408.20,524.56 410.59,526.71 412.95,528.71 ZM 560.59 328.77 C561.81,329.34 562.75,329.85 563.32,330.29 C563.04,330.10 562.59,329.84 562.00,329.50 C561.59,329.27 561.12,329.03 560.59,328.77 ZM 482.14 491.02 C481.48,488.72 480.01,484.72 477.34,477.42 C477.58,478.06 477.80,478.68 478.02,479.27 C480.25,485.37 481.54,488.89 482.14,491.02 ZM 430.31 355.06 C430.94,355.52 431.43,356.04 431.63,356.49 C431.58,356.41 431.52,356.33 431.46,356.25 C431.18,355.85 430.77,355.43 430.31,355.06 ZM 462.74 460.16 C464.43,460.22 464.82,460.73 465.55,461.77 C464.82,460.72 464.35,460.23 462.74,460.16 ZM 466.03 451.44 C466.08,452.35 465.82,452.92 465.40,453.61 C465.80,452.89 466.05,452.30 466.03,451.44 ZM 585.77 391.20 C585.69,390.93 585.68,390.72 585.76,390.59 C585.78,390.56 585.80,390.53 585.81,390.50 C585.76,390.73 585.74,390.96 585.77,391.20 ZM 460.95 326.78 C460.95,326.57 460.98,326.42 461.05,326.35 C461.09,326.31 461.12,326.27 461.16,326.23 C461.07,326.41 461.00,326.59 460.95,326.78 ZM 584.93 374.83 C582.10,373.11 580.28,371.93 579.17,371.01 C580.28,371.93 582.09,373.11 584.93,374.83 ZM 629.11 468.47 C629.83,469.23 630.20,470.30 630.70,472.17 C630.20,470.31 629.81,469.23 629.11,468.47 ZM 465.55 461.77 C466.35,462.91 468.31,464.13 469.92,464.48 C468.31,464.13 466.35,462.91 465.56,461.78 C465.56,461.78 465.55,461.77 465.55,461.77 ZM 415.24 469.53 C415.39,469.31 415.54,469.11 415.69,468.92 C415.56,469.11 415.40,469.31 415.24,469.53 ZM 485.92 513.00 C486.60,513.00 487.05,513.10 487.36,513.38 C487.05,513.09 486.59,513.00 485.92,513.00 Z" fill="rgb(114,27,29)"/>
<path d="M 535.00 858.94 C516.27,860.51 514.19,860.56 492.00,859.83 C471.64,859.16 465.22,858.50 444.94,854.97 C429.26,852.24 421.99,850.43 406.50,845.37 C351.74,827.52 312.32,805.24 275.34,771.24 C243.55,742.02 220.61,712.56 202.72,678.00 C186.53,646.72 177.08,619.00 170.44,583.27 C165.51,556.74 164.65,545.49 165.30,516.00 C165.96,486.09 167.91,472.08 175.11,445.59 C175.70,443.44 176.32,440.96 176.49,440.09 C176.84,438.30 181.19,424.36 184.00,416.00 C186.36,408.99 191.80,395.94 192.94,394.56 C193.42,393.98 194.74,390.85 195.88,387.62 C197.01,384.39 198.72,380.56 199.68,379.12 C200.64,377.68 201.51,375.98 201.61,375.35 C201.83,373.98 208.29,363.96 208.69,364.36 C208.84,364.51 206.25,370.68 202.93,378.07 C176.83,436.12 167.92,500.58 177.02,565.39 C184.38,617.72 206.52,669.78 240.86,715.50 C244.99,721.00 248.85,726.02 249.44,726.65 C250.02,727.28 254.32,732.13 259.00,737.42 C270.39,750.32 283.83,762.69 304.00,778.84 C315.80,788.29 338.41,802.31 356.00,811.09 C393.72,829.91 427.13,840.02 472.00,846.19 C487.07,848.27 538.04,847.93 555.50,845.64 C581.96,842.17 608.09,835.76 631.77,826.92 C646.64,821.37 671.50,809.76 684.42,802.34 C715.04,784.74 746.24,759.16 772.30,730.29 C774.88,727.43 777.00,725.33 777.00,725.62 C777.00,726.11 770.26,734.81 768.95,736.00 C768.65,736.28 766.35,739.20 763.83,742.50 C756.60,751.99 732.20,774.77 712.36,790.57 C705.11,796.35 692.89,804.13 673.50,815.33 C654.82,826.12 619.69,841.17 599.54,847.01 C579.49,852.82 555.84,857.19 535.00,858.94 ZM 518.17 718.39 C513.85,720.58 511.61,720.99 509.74,719.91 C506.44,718.00 486.51,710.80 476.50,707.91 C452.54,700.97 413.07,694.44 374.50,691.03 C340.70,688.04 335.96,687.12 357.00,687.64 C417.19,689.12 470.50,695.64 497.82,704.86 C502.94,706.59 508.31,708.62 509.74,709.37 C512.01,710.56 512.88,710.50 516.58,708.86 C518.91,707.83 522.79,706.72 525.21,706.38 C529.55,705.79 529.61,705.82 530.70,709.36 L 531.79 712.93 L 526.31 714.98 C523.30,716.11 519.64,717.64 518.17,718.39 ZM 469.88 317.78 C470.87,319.34 474.79,319.93 477.26,319.17 C475.72,319.70 473.34,320.00 470.56,320.01 C464.87,320.02 464.51,320.04 462.70,323.33 C462.86,322.86 462.97,322.40 462.99,322.02 C463.10,321.63 463.19,321.29 463.26,321.00 C464.41,318.98 469.05,316.47 469.88,317.78 ZM 314.14 642.02 C315.62,652.41 315.66,652.40 316.79,648.50 C317.19,647.12 317.74,644.63 318.24,641.97 C317.91,644.21 317.60,646.42 317.41,648.00 C316.46,655.76 315.09,657.72 314.96,651.50 C314.91,649.44 314.58,645.64 314.14,642.02 ZM 250.16 641.99 C251.55,646.01 252.82,649.00 253.17,649.00 C253.41,649.00 253.67,647.60 253.88,645.43 C253.49,654.37 253.38,654.01 252.29,649.50 C251.86,647.73 251.04,644.85 250.16,641.99 ZM 469.73 344.58 C468.95,343.80 466.48,339.64 464.23,335.33 C464.14,335.15 464.05,334.97 463.96,334.80 C463.91,334.69 463.86,334.59 463.81,334.49 L 464.70 336.15 C466.70,339.90 468.76,343.31 469.79,344.65 C469.77,344.63 469.75,344.61 469.73,344.58 ZM 254.46 633.99 C254.69,631.16 255.10,630.54 256.21,630.28 C255.18,630.53 254.75,631.13 254.46,633.99 ZM 243.16 630.19 L 240.00 629.87 L 243.19 630.19 C244.48,630.31 245.27,630.45 245.97,631.22 C245.28,630.49 244.48,630.32 243.16,630.19 ZM 320.65 630.63 C321.15,630.03 321.86,630.00 323.07,630.00 C321.86,630.00 321.15,630.06 320.65,630.63 ZM 470.78 345.49 C471.10,345.68 471.38,345.80 471.65,345.83 C471.37,345.82 471.09,345.70 470.78,345.49 ZM 312.68 631.76 L 312.49 630.50 L 312.50 630.50 ZM 478.52 318.56 C478.53,318.55 478.55,318.54 478.56,318.53 C478.55,318.54 478.53,318.55 478.52,318.56 Z" fill="rgb(164,164,166)"/>
<path d="M 0.00 512.00 L 0.00 0.00 L 512.00 0.00 L 1024.00 0.00 L 1024.00 512.00 L 1024.00 1024.00 L 512.00 1024.00 L 0.00 1024.00 L 0.00 512.00 ZM 535.00 858.94 C555.84,857.19 579.49,852.82 599.54,847.01 C619.69,841.17 654.82,826.12 673.50,815.33 C692.89,804.13 705.11,796.35 712.36,790.57 C732.20,774.77 756.60,751.99 763.83,742.50 C766.35,739.20 768.65,736.28 768.95,736.00 C770.26,734.81 777.00,726.11 777.00,725.62 C777.00,725.33 774.88,727.43 772.30,730.29 C746.24,759.16 715.04,784.74 684.42,802.34 C671.50,809.76 646.64,821.37 631.77,826.92 C608.09,835.76 581.96,842.17 555.50,845.64 C538.04,847.93 487.07,848.27 472.00,846.19 C427.13,840.02 393.72,829.91 356.00,811.09 C338.41,802.31 315.80,788.29 304.00,778.84 C283.83,762.69 270.39,750.32 259.00,737.42 C254.32,732.13 250.02,727.28 249.44,726.65 C248.85,726.02 244.99,721.00 240.86,715.50 C206.52,669.78 184.38,617.72 177.02,565.39 C167.92,500.58 176.83,436.12 202.93,378.07 C206.25,370.68 208.84,364.51 208.69,364.36 C208.29,363.96 201.83,373.98 201.61,375.35 C201.51,375.98 200.64,377.68 199.68,379.12 C198.72,380.56 197.01,384.39 195.88,387.62 C194.74,390.85 193.42,393.98 192.94,394.56 C191.80,395.94 186.36,408.99 184.00,416.00 C181.19,424.36 176.84,438.30 176.49,440.09 C176.32,440.96 175.70,443.44 175.11,445.59 C167.91,472.08 165.96,486.09 165.30,516.00 C164.65,545.49 165.51,556.74 170.44,583.27 C177.08,619.00 186.53,646.72 202.72,678.00 C220.61,712.56 243.55,742.02 275.34,771.24 C312.32,805.24 351.74,827.52 406.50,845.37 C421.99,850.43 429.26,852.24 444.94,854.97 C465.22,858.50 471.64,859.16 492.00,859.83 C514.19,860.56 516.27,860.51 535.00,858.94 ZM 518.17 718.39 C519.64,717.64 523.30,716.11 526.31,714.98 L 531.79 712.93 L 530.70 709.36 C529.61,705.82 529.55,705.79 525.21,706.38 C522.79,706.72 518.91,707.83 516.58,708.86 C512.88,710.50 512.01,710.56 509.74,709.37 C508.31,708.62 502.94,706.59 497.82,704.86 C470.50,695.64 417.19,689.12 357.00,687.64 C335.96,687.12 340.70,688.04 374.50,691.03 C413.07,694.44 452.54,700.97 476.50,707.91 C486.51,710.80 506.44,718.00 509.74,719.91 C511.61,720.99 513.85,720.58 518.17,718.39 ZM 518.44 703.02 C525.23,700.12 539.68,696.37 555.00,693.54 C582.86,688.39 617.61,685.59 692.00,682.51 C713.17,681.63 736.35,680.55 743.50,680.11 C750.72,679.66 649.93,679.23 516.69,679.15 C357.03,679.05 277.09,679.33 277.50,680.00 C277.87,680.59 284.09,681.00 292.81,681.00 C306.21,681.00 337.32,682.28 390.50,685.01 C439.41,687.51 478.33,693.22 501.68,701.30 C507.08,703.17 512.03,704.77 512.67,704.85 C513.31,704.93 515.91,704.11 518.44,703.02 ZM 357.02 670.49 C358.63,669.66 360.40,668.11 360.97,667.06 C361.55,665.98 362.00,658.47 362.00,650.02 C362.00,635.31 361.93,634.84 359.55,632.45 C355.98,628.89 348.33,628.95 344.92,632.58 C342.58,635.08 342.50,635.64 342.50,650.48 C342.50,664.38 342.68,665.99 344.50,668.01 C348.16,672.08 352.35,672.91 357.02,670.49 ZM 459.94 670.53 C462.94,668.98 465.00,664.64 465.00,659.85 C465.00,657.35 464.63,657.00 462.00,657.00 C459.38,657.00 459.00,657.35 459.00,659.81 C459.00,663.85 456.86,666.41 454.17,665.56 C452.07,664.89 452.00,664.37 452.00,650.50 C452.00,636.63 452.07,636.11 454.17,635.44 C456.73,634.63 459.00,637.10 459.00,640.69 C459.00,642.59 459.53,643.00 462.00,643.00 C464.61,643.00 465.00,642.64 465.00,640.25 C464.99,632.39 458.67,627.63 451.40,630.03 C445.91,631.84 445.00,634.80 445.00,650.82 C445.00,663.52 445.19,664.97 447.14,667.45 C450.69,671.96 455.11,673.03 459.94,670.53 ZM 704.39 671.04 C709.18,669.22 710.00,665.71 710.00,647.05 L 710.00 630.00 L 707.00 630.00 L 704.00 630.00 L 704.00 646.88 C704.00,664.92 703.47,666.92 699.05,665.52 C697.09,664.89 697.00,664.12 697.00,647.43 L 697.00 630.00 L 694.00 630.00 L 691.00 630.00 L 691.00 647.78 C691.00,662.49 691.28,665.95 692.61,667.85 C695.24,671.60 699.72,672.82 704.39,671.04 ZM 776.35 669.09 C777.66,667.78 778.48,665.31 778.77,661.76 L 779.22 656.39 L 772.61 649.19 C765.52,641.47 764.32,637.97 768.06,635.97 C770.56,634.63 772.72,636.04 773.19,639.32 C773.41,640.86 774.31,641.59 776.25,641.82 C778.78,642.11 779.00,641.85 779.00,638.70 C779.00,636.74 778.11,634.14 776.93,632.63 C775.20,630.44 774.05,630.00 770.06,630.00 C766.73,630.00 764.47,630.63 762.63,632.07 C760.36,633.86 760.00,634.89 760.00,639.67 C760.00,645.11 760.10,645.29 766.50,651.93 C773.21,658.88 774.59,662.44 771.55,664.96 C769.18,666.92 766.64,665.74 765.63,662.19 C764.83,659.43 764.27,658.95 762.09,659.20 C759.43,659.51 759.30,660.06 760.55,665.78 C761.79,671.44 771.89,673.56 776.35,669.09 ZM 785.00 669.50 C785.00,667.67 784.47,667.00 783.00,667.00 C781.05,667.00 780.17,669.84 781.67,671.33 C783.18,672.85 785.00,671.85 785.00,669.50 ZM 803.42 671.39 C804.29,671.06 805.00,670.16 805.00,669.39 C805.00,667.70 803.32,667.54 802.77,669.18 C801.93,671.70 800.00,668.67 800.00,664.82 C800.00,661.22 800.23,660.83 802.06,661.30 C803.37,661.65 803.97,661.42 803.72,660.67 C803.15,658.94 799.87,658.59 798.89,660.15 C797.47,662.39 797.89,668.75 799.57,670.43 C801.36,672.22 801.30,672.21 803.42,671.39 ZM 246.22 659.75 L 246.50 648.50 L 250.33 659.75 C253.99,670.50 254.29,671.00 256.97,671.00 C259.36,671.00 259.85,670.52 260.27,667.75 C261.15,662.05 261.05,632.55 260.14,631.16 C259.67,630.43 258.20,629.98 256.89,630.16 C254.59,630.49 254.49,630.86 254.21,639.75 C254.05,644.84 253.59,649.00 253.17,649.00 C252.76,649.00 251.06,644.84 249.40,639.75 C246.49,630.82 246.27,630.49 243.19,630.19 L 240.00 629.87 L 240.00 650.44 L 240.00 671.00 L 242.97 671.00 L 245.93 671.00 L 246.22 659.75 ZM 283.00 668.50 C283.00,666.14 282.70,666.00 277.50,666.00 L 272.00 666.00 L 272.00 660.06 L 272.00 654.11 L 276.25 653.81 C280.05,653.53 280.53,653.21 280.82,650.75 C281.12,648.11 280.96,648.00 276.57,648.00 L 272.00 648.00 L 272.00 642.00 L 272.00 636.00 L 277.50 636.00 C282.94,636.00 283.00,635.97 283.00,633.00 L 283.00 630.00 L 274.00 630.00 L 265.00 630.00 L 265.00 649.83 C265.00,660.74 265.30,669.97 265.67,670.33 C266.03,670.70 270.08,671.00 274.67,671.00 C282.89,671.00 283.00,670.97 283.00,668.50 ZM 298.00 653.50 L 298.00 636.00 L 301.50 636.00 C304.72,636.00 305.00,635.76 305.00,633.00 L 305.00 630.00 L 295.00 630.00 L 285.00 630.00 L 285.00 633.00 C285.00,635.76 285.28,636.00 288.50,636.00 L 292.00 636.00 L 292.00 653.50 L 292.00 671.00 L 295.00 671.00 L 298.00 671.00 L 298.00 653.50 ZM 319.96 664.25 C320.58,660.54 321.45,655.25 321.89,652.50 C322.78,646.83 323.09,647.52 325.00,659.50 C326.90,671.39 326.73,671.00 330.02,671.00 C331.66,671.00 333.00,670.80 333.00,670.57 C333.00,670.33 334.35,662.12 336.00,652.33 C339.70,630.40 339.71,630.00 336.61,630.00 C333.62,630.00 333.40,630.59 331.86,642.93 C331.17,648.47 330.31,653.00 329.94,653.00 C329.58,653.00 328.75,648.84 328.10,643.75 C326.33,629.85 326.38,630.00 323.07,630.00 C320.25,630.00 320.15,630.18 319.06,637.25 C318.45,641.24 317.42,646.30 316.79,648.50 C315.64,652.47 315.62,652.41 314.07,641.50 L 312.50 630.50 L 309.16 630.18 C305.96,629.87 305.84,629.99 306.39,632.68 C306.71,634.23 308.13,642.70 309.54,651.50 C312.81,671.79 312.54,671.00 315.98,671.00 C318.71,671.00 318.86,670.73 319.96,664.25 ZM 373.00 662.50 C373.00,655.53 373.28,654.00 374.53,654.00 C375.37,654.00 376.24,654.56 376.45,655.25 C376.66,655.94 377.78,659.76 378.95,663.75 C381.05,670.97 381.07,671.00 384.56,671.00 C387.59,671.00 387.94,670.76 387.15,669.25 C385.20,665.55 382.07,652.58 382.98,652.01 C385.19,650.65 387.17,643.60 386.53,639.37 C385.45,632.17 383.44,630.61 374.61,630.17 L 367.00 629.78 L 367.00 650.39 L 367.00 671.00 L 370.00 671.00 L 373.00 671.00 L 373.00 662.50 ZM 408.00 668.50 C408.00,666.35 407.55,666.00 404.75,665.99 C402.96,665.98 400.49,665.70 399.25,665.37 C397.03,664.77 397.00,664.57 397.00,647.38 L 397.00 630.00 L 394.00 630.00 L 391.00 630.00 L 391.00 650.50 L 391.00 671.00 L 399.50 671.00 C407.90,671.00 408.00,670.97 408.00,668.50 ZM 426.15 669.92 C429.72,668.01 431.00,662.92 431.00,650.68 C431.00,644.42 430.50,637.87 429.89,636.12 C428.42,631.89 424.44,630.00 417.05,630.00 L 411.00 630.00 L 411.00 650.50 L 411.00 671.00 L 417.57 671.00 C421.18,671.00 425.04,670.51 426.15,669.92 ZM 474.00 668.08 C474.00,663.23 474.92,662.00 478.59,662.00 C481.45,662.00 482.05,662.41 482.57,664.75 C483.91,670.75 484.09,671.00 487.07,671.00 C488.68,671.00 490.00,670.86 490.00,670.68 C490.00,670.50 488.20,661.42 486.00,650.50 C483.80,639.58 482.00,630.50 482.00,630.32 C482.00,630.14 480.43,630.00 478.52,630.00 C475.72,630.00 474.94,630.44 474.54,632.25 C473.98,634.79 468.46,664.01 467.74,668.25 C467.31,670.80 467.53,671.00 470.64,671.00 C473.69,671.00 474.00,670.73 474.00,668.08 ZM 499.00 663.00 L 499.00 655.00 L 502.48 655.00 C507.69,655.00 512.06,650.70 512.68,644.97 C513.31,639.10 511.19,632.91 508.00,631.29 C506.62,630.60 502.69,630.02 499.25,630.01 L 493.00 630.00 L 493.00 650.50 L 493.00 671.00 L 496.00 671.00 L 499.00 671.00 L 499.00 663.00 ZM 523.00 650.50 L 523.00 630.00 L 520.00 630.00 L 517.00 630.00 L 517.00 650.50 L 517.00 671.00 L 520.00 671.00 L 523.00 671.00 L 523.00 650.50 ZM 539.00 653.50 L 539.00 636.00 L 542.50 636.00 C545.72,636.00 546.00,635.76 546.00,633.00 L 546.00 630.00 L 535.93 630.00 L 525.87 630.00 L 526.18 632.75 C526.45,635.04 527.04,635.55 529.75,635.81 L 533.00 636.13 L 533.00 653.56 L 533.00 671.00 L 536.00 671.00 L 539.00 671.00 L 539.00 653.50 ZM 550.61 666.75 C551.44,662.77 551.73,662.48 555.18,662.19 C558.84,661.89 558.86,661.91 559.54,666.44 C560.17,670.64 560.45,671.00 563.11,671.00 C565.19,671.00 566.00,670.51 566.00,669.26 C566.00,668.30 564.37,659.08 562.38,648.76 L 558.75 630.00 L 555.43 630.00 C553.61,630.00 551.90,630.35 551.63,630.78 C551.19,631.50 544.00,668.74 544.00,670.32 C544.00,670.69 545.29,671.00 546.86,671.00 C549.41,671.00 549.81,670.55 550.61,666.75 ZM 587.00 668.55 C587.00,666.30 586.57,666.08 581.75,665.80 L 576.50 665.50 L 576.23 647.75 L 575.95 630.00 L 572.98 630.00 L 570.00 630.00 L 570.00 650.50 L 570.00 671.00 L 578.50 671.00 C586.85,671.00 587.00,670.96 587.00,668.55 ZM 615.41 652.25 C617.45,641.94 619.35,632.68 619.65,631.68 C620.10,630.14 619.67,629.91 616.89,630.18 L 613.61 630.50 L 611.81 641.00 C608.61,659.76 608.84,658.87 608.02,656.00 C607.63,654.62 606.48,648.21 605.47,641.75 L 603.63 630.00 L 600.25 630.00 C597.50,630.00 596.96,630.33 597.38,631.75 C597.67,632.71 599.28,640.92 600.97,650.00 C602.66,659.08 604.26,667.51 604.54,668.75 C604.93,670.53 605.73,671.00 608.37,671.00 L 611.71 671.00 L 615.41 652.25 ZM 641.00 668.55 C641.00,666.27 640.60,666.08 635.25,665.80 L 629.50 665.50 L 629.20 659.25 L 628.90 653.00 L 633.45 653.00 C637.61,653.00 638.00,652.79 638.00,650.56 C638.00,648.40 637.51,648.08 633.75,647.81 L 629.50 647.50 L 629.20 641.75 L 628.90 636.00 L 634.45 636.00 C639.95,636.00 640.00,635.97 640.00,633.00 L 640.00 630.00 L 631.50 630.00 L 623.00 630.00 L 623.00 650.50 L 623.00 671.00 L 632.00 671.00 C640.88,671.00 641.00,670.97 641.00,668.55 ZM 650.22 659.25 C650.49,647.85 650.54,647.62 651.87,651.50 C657.21,667.07 659.14,671.00 661.43,671.00 C663.55,671.00 663.77,670.45 664.38,663.75 C664.73,659.76 664.99,650.54 664.94,643.25 L 664.85 630.00 L 661.93 630.00 L 659.00 630.00 L 659.00 641.00 C659.00,647.05 658.65,652.00 658.22,652.00 C657.78,652.00 655.84,647.16 653.91,641.25 C650.46,630.76 650.30,630.49 647.19,630.19 L 644.00 629.87 L 644.00 650.44 L 644.00 671.00 L 646.97 671.00 L 649.94 671.00 L 650.22 659.25 ZM 681.00 653.50 L 681.00 636.00 L 684.50 636.00 C687.72,636.00 688.00,635.76 688.00,633.00 L 688.00 630.00 L 678.00 630.00 L 668.00 630.00 L 668.00 633.00 C668.00,635.76 668.28,636.00 671.50,636.00 L 675.00 636.00 L 675.00 653.50 L 675.00 671.00 L 678.00 671.00 L 681.00 671.00 L 681.00 653.50 ZM 721.47 662.50 C721.97,656.57 722.57,654.00 723.48,654.00 C724.25,654.00 725.71,657.41 727.12,662.50 C729.46,671.00 729.46,671.00 732.80,671.00 C735.51,671.00 736.03,670.67 735.60,669.25 C735.30,668.29 734.10,664.39 732.94,660.58 L 730.82 653.67 L 732.91 649.95 C735.24,645.80 735.57,640.94 733.86,636.04 C732.44,631.97 728.10,630.00 720.53,630.00 L 715.00 630.00 L 715.00 650.50 L 715.00 671.00 L 717.88 671.00 L 720.76 671.00 L 721.47 662.50 ZM 757.00 668.50 C757.00,666.14 756.70,666.00 751.50,666.00 L 746.00 666.00 L 746.00 659.50 L 746.00 653.00 L 750.50 653.00 C754.63,653.00 755.00,652.80 755.00,650.50 C755.00,648.20 754.63,648.00 750.50,648.00 C746.21,648.00 746.00,647.87 746.00,645.12 C746.00,643.54 745.72,640.87 745.39,639.18 L 744.77 636.11 L 750.64 635.80 C756.20,635.52 756.52,635.36 756.82,632.75 L 757.13 630.00 L 748.07 630.00 L 739.00 630.00 L 739.00 650.50 L 739.00 671.00 L 748.00 671.00 C756.93,671.00 757.00,670.98 757.00,668.50 ZM 793.30 668.75 L 793.75 666.50 L 794.49 668.75 C795.84,672.83 797.00,671.10 797.00,665.00 C797.00,661.67 796.56,659.00 796.00,659.00 C795.45,659.00 794.97,660.01 794.94,661.25 L 794.87 663.50 L 793.97 661.25 C792.32,657.16 791.00,658.83 791.00,665.00 C791.00,670.88 792.43,673.20 793.30,668.75 ZM 543.44 584.27 C544.30,581.38 545.11,580.92 554.33,577.99 C559.81,576.26 569.96,571.96 576.89,568.44 C588.71,562.43 589.68,562.12 592.73,563.22 C595.57,564.25 596.35,564.13 598.74,562.35 C600.95,560.71 601.56,559.37 601.80,555.66 C602.06,551.69 602.62,550.63 605.63,548.33 C612.91,542.78 627.21,524.37 632.87,513.25 C634.41,510.24 635.67,509.00 637.19,509.00 C641.98,509.00 644.62,502.89 641.97,497.94 C641.19,496.48 641.66,493.66 643.95,486.26 C651.93,460.35 652.09,429.39 644.36,404.79 C641.43,395.48 639.44,393.43 640.28,400.60 C640.86,405.51 639.99,409.84 635.85,422.73 C633.00,431.62 633.96,433.90 637.24,426.00 C638.72,422.42 640.43,417.54 641.03,415.15 C641.64,412.76 642.36,411.02 642.63,411.30 C645.40,414.06 648.23,449.34 646.57,460.39 L 645.88 464.97 L 643.19 463.29 C641.71,462.36 640.34,461.50 640.15,461.37 C639.95,461.23 639.17,457.83 638.40,453.81 C637.63,449.79 636.02,443.18 634.82,439.13 C632.96,432.85 632.51,432.09 631.79,434.04 C631.22,435.59 631.58,438.28 632.94,442.41 C635.56,450.42 636.97,457.00 636.05,457.00 C635.65,457.00 634.08,454.73 632.57,451.95 C631.06,449.17 629.30,447.09 628.66,447.32 C627.06,447.91 627.36,448.78 631.59,455.88 C635.15,461.86 635.21,462.13 633.39,463.55 C632.20,464.48 630.39,464.82 628.50,464.47 C623.19,463.47 621.50,463.48 621.36,464.50 C621.28,465.05 623.10,466.05 625.39,466.72 C629.12,467.81 629.69,468.39 630.70,472.17 C632.07,477.31 632.47,476.92 617.80,484.50 C606.98,490.09 604.40,492.01 607.69,491.99 C609.95,491.99 626.36,483.73 630.71,480.41 C633.04,478.63 634.64,478.12 636.47,478.58 C638.67,479.13 639.00,479.76 638.99,483.36 C638.97,492.11 637.97,494.99 634.46,496.45 C630.97,497.91 629.48,500.78 630.37,504.33 C630.96,506.70 624.27,515.32 616.38,522.33 C611.91,526.31 609.93,526.82 608.00,524.50 C607.32,523.67 606.14,523.00 605.38,523.00 C604.28,523.00 604.00,520.44 604.00,510.42 C604.00,500.80 603.71,497.93 602.75,498.25 C601.86,498.54 601.42,502.14 601.22,510.59 C600.95,522.40 600.91,522.54 598.22,524.10 C595.66,525.59 595.26,525.54 591.28,523.26 C584.97,519.64 582.21,520.84 588.28,524.56 C592.59,527.22 593.00,527.79 592.51,530.45 C592.21,532.07 591.53,533.67 591.00,534.00 C590.19,534.50 576.15,537.94 568.25,539.57 C567.01,539.83 566.00,540.53 566.00,541.13 C566.00,542.51 572.77,541.62 582.76,538.95 C595.51,535.53 596.34,536.73 585.75,543.27 C576.81,548.79 575.85,549.28 566.08,553.47 C558.29,556.80 558.18,556.82 556.14,554.92 C555.01,553.86 553.66,553.00 553.13,553.00 C552.61,553.00 549.82,554.87 546.93,557.15 C542.13,560.94 541.84,561.41 543.46,562.60 C545.51,564.09 545.11,566.77 542.13,571.59 C540.52,574.19 539.73,574.61 537.17,574.24 C534.85,573.90 533.50,574.41 531.51,576.40 C528.39,579.52 528.47,579.51 525.27,577.00 C522.77,575.03 518.99,574.28 519.01,575.75 C519.01,576.16 520.47,577.36 522.26,578.41 L 525.50 580.31 L 523.00 581.06 C521.62,581.47 516.42,581.85 511.44,581.90 C504.85,581.97 501.85,582.42 500.44,583.56 C498.67,584.99 499.87,585.08 514.33,584.68 C527.32,584.32 530.25,584.49 530.70,585.65 C530.99,586.43 532.42,587.68 533.86,588.43 C537.64,590.41 542.19,588.43 543.44,584.27 ZM 480.90 582.02 C523.16,572.60 570.36,535.26 600.96,487.06 C607.63,476.55 618.80,453.43 622.98,441.50 C625.67,433.81 631.59,413.59 633.29,406.25 C634.23,402.20 632.35,403.89 631.06,408.25 C626.91,422.29 613.97,447.77 601.34,466.80 C563.89,523.21 506.76,566.10 457.72,574.61 C448.81,576.16 431.51,576.11 423.50,574.51 C420.92,573.99 421.12,574.26 425.00,576.41 C439.94,584.70 459.89,586.71 480.90,582.02 ZM 456.00 565.29 C477.71,561.28 506.43,547.88 528.00,531.68 C565.25,503.71 595.94,465.24 617.51,419.50 C623.63,406.53 629.68,391.77 632.49,383.00 C633.45,379.98 634.62,377.09 635.09,376.59 C636.05,375.54 643.29,380.12 652.92,387.85 C656.44,390.68 659.50,392.83 659.71,392.63 C659.91,392.42 658.31,384.88 656.14,375.87 C653.98,366.87 649.40,347.58 645.97,333.00 C642.54,318.42 639.61,306.35 639.45,306.17 C639.30,305.99 630.71,314.54 620.37,325.17 C610.02,335.80 597.57,348.33 592.70,353.01 C587.83,357.69 584.18,361.85 584.59,362.26 C585.00,362.67 586.85,363.00 588.71,363.00 C590.57,363.00 596.53,363.74 601.95,364.64 L 611.81 366.28 L 610.30 371.39 C601.86,400.03 584.43,433.75 563.73,461.50 C540.99,491.98 509.21,518.69 477.50,534.00 C456.06,544.35 439.19,548.51 421.60,547.78 C411.83,547.38 409.68,546.95 403.69,544.20 C399.94,542.48 395.03,539.61 392.78,537.83 C387.63,533.74 381.68,524.63 380.07,518.33 C377.85,509.68 376.94,509.00 377.59,516.48 C380.94,554.54 411.43,573.52 456.00,565.29 ZM 408.00 531.79 C404.15,527.34 401.00,523.30 401.00,522.82 C401.00,522.33 404.26,524.77 408.25,528.25 C412.24,531.72 418.13,536.07 421.35,537.91 C426.88,541.08 427.54,541.22 433.81,540.58 C437.45,540.21 440.67,539.66 440.97,539.36 C441.26,539.07 440.57,538.07 439.43,537.15 C436.70,534.94 433.04,517.82 435.15,517.12 C437.28,516.41 442.00,511.29 442.00,509.69 C442.00,508.47 445.05,508.16 460.16,507.85 L 478.32 507.47 L 481.08 510.23 C482.60,511.76 484.78,513.00 485.92,513.00 C487.63,513.00 488.00,513.62 488.00,516.50 C488.00,518.42 488.45,520.00 489.00,520.00 C489.55,520.00 490.02,518.54 490.04,516.75 C490.08,514.16 490.78,513.05 493.54,511.30 C496.86,509.18 497.12,509.16 499.94,510.78 C503.85,513.03 505.22,511.40 501.75,508.62 C500.24,507.41 499.00,506.16 499.00,505.83 C499.00,505.50 501.81,504.93 505.25,504.55 C508.69,504.18 512.62,503.21 514.00,502.41 C516.29,501.07 515.82,501.00 508.50,501.59 C504.10,501.94 500.14,502.29 499.70,502.36 C499.26,502.44 498.27,501.05 497.51,499.27 L 496.11 496.04 L 505.70 484.77 C510.97,478.57 517.70,470.24 520.65,466.25 C525.87,459.20 526.13,459.00 530.33,459.00 L 534.64 459.00 L 537.94 466.52 C539.76,470.65 541.67,474.30 542.19,474.62 C544.53,476.07 544.04,473.42 540.62,466.13 C537.34,459.14 537.06,457.95 538.15,455.58 L 539.36 452.91 L 548.62 453.59 C558.32,454.30 563.83,453.44 559.00,451.96 C557.62,451.54 552.79,451.15 548.25,451.10 C541.05,451.01 540.00,450.77 540.00,449.22 C540.00,448.24 539.30,446.44 538.44,445.21 C536.95,443.09 537.15,442.61 542.79,434.74 C549.97,424.74 560.38,408.65 564.96,400.50 C566.81,397.20 568.44,394.35 568.58,394.17 C568.72,393.99 569.75,394.33 570.87,394.93 C572.95,396.04 574.88,399.82 579.70,412.17 C581.17,415.93 582.74,419.00 583.19,419.00 C584.89,419.00 583.86,414.79 580.00,405.88 C577.80,400.81 576.12,396.59 576.25,396.50 C576.39,396.42 577.96,395.76 579.75,395.05 C582.85,393.82 583.17,393.92 587.00,397.38 C593.70,403.43 595.49,401.84 589.05,395.55 C585.91,392.48 585.29,391.32 586.05,389.91 C586.57,388.93 587.00,386.24 587.00,383.93 L 587.00 379.72 L 593.50 380.39 C599.58,381.01 600.00,380.93 600.00,379.03 C600.00,377.23 599.35,377.00 594.25,376.99 C591.09,376.98 587.57,376.41 586.44,375.74 C578.40,370.92 577.22,369.87 577.72,367.96 C578.40,365.38 576.32,365.41 575.50,368.00 C575.15,369.11 573.99,370.00 572.88,370.00 C571.79,370.00 569.48,370.73 567.74,371.63 C564.68,373.22 564.54,373.19 563.04,370.90 C558.09,363.33 545.35,346.09 541.04,341.13 C538.27,337.95 536.00,334.85 536.00,334.24 C536.00,332.70 545.87,331.64 552.75,332.44 C565.77,333.95 570.11,335.17 571.04,337.59 C571.52,338.86 573.10,340.67 574.55,341.63 C577.10,343.29 577.18,343.65 576.84,351.18 C576.61,356.14 576.85,358.88 577.49,358.67 C578.05,358.49 578.63,355.18 578.79,351.31 C579.05,345.12 579.35,344.16 581.36,343.25 C583.15,342.43 584.15,342.61 586.06,344.08 C587.40,345.11 589.06,345.97 589.75,345.98 C592.00,346.02 591.06,343.42 588.00,341.16 C586.35,339.94 585.00,338.03 585.00,336.92 C585.00,334.00 580.58,330.01 577.30,329.96 C575.29,329.94 572.67,328.22 568.00,323.88 C563.19,319.41 562.15,318.02 564.00,318.55 C568.39,319.80 582.23,327.07 590.66,332.54 C598.21,337.44 600.00,338.07 600.00,335.81 C600.00,332.98 570.90,317.17 558.84,313.44 C554.04,311.96 553.10,311.27 552.63,308.90 C551.64,303.95 545.48,302.67 541.55,306.59 C540.16,307.98 538.72,308.05 529.94,307.09 C515.25,305.49 504.75,305.75 492.16,308.01 C481.86,309.87 480.78,309.90 478.54,308.44 C475.11,306.19 471.86,306.98 469.52,310.65 C468.18,312.73 465.65,314.55 462.00,316.02 C454.50,319.06 440.71,326.46 433.80,331.14 C430.47,333.40 426.92,335.00 425.25,335.00 C421.42,335.00 418.60,337.21 418.46,340.33 C418.39,341.96 416.21,345.16 412.35,349.28 C406.28,355.78 396.58,368.93 393.69,374.59 C392.39,377.15 391.64,377.60 389.29,377.26 C382.82,376.31 378.62,384.16 382.57,389.80 C384.03,391.88 383.96,392.63 381.62,399.77 C375.05,419.84 372.56,437.35 373.80,454.79 C374.50,464.61 374.44,465.14 372.39,466.48 C367.57,469.64 369.01,477.05 374.88,479.26 C377.16,480.12 378.11,481.90 381.36,491.38 C385.97,504.83 392.75,517.45 401.83,529.50 C408.17,537.92 412.30,541.55 414.20,540.38 C414.64,540.11 411.85,536.24 408.00,531.79 ZM 350.20 664.80 C349.38,663.98 349.00,659.19 349.00,649.74 L 349.00 635.87 L 352.25 636.19 L 355.50 636.50 L 355.78 649.86 C356.06,663.09 355.48,666.00 352.58,666.00 C351.93,666.00 350.86,665.46 350.20,664.80 ZM 373.00 641.94 L 373.00 635.87 L 376.25 636.19 C379.14,636.47 379.54,636.88 379.82,639.89 C380.39,645.79 379.34,648.00 375.98,648.00 C373.00,648.00 373.00,648.00 373.00,641.94 ZM 417.67 665.33 C417.30,664.97 417.00,658.19 417.00,650.27 L 417.00 635.87 L 420.25 636.19 L 423.50 636.50 L 423.78 649.99 C424.03,661.80 423.85,663.64 422.34,664.74 C420.44,666.13 418.69,666.35 417.67,665.33 ZM 476.37 653.25 C476.66,651.74 477.21,648.47 477.60,646.00 C478.22,642.06 478.39,641.82 479.01,644.02 C479.39,645.41 480.02,648.67 480.41,651.27 C481.11,655.90 481.06,656.00 478.48,656.00 C476.14,656.00 475.90,655.69 476.37,653.25 ZM 499.00 642.50 L 499.00 635.87 L 502.25 636.19 L 505.50 636.50 L 505.50 642.50 L 505.50 648.50 L 502.25 648.81 L 499.00 649.13 L 499.00 642.50 ZM 552.88 656.55 C552.25,655.92 554.28,643.00 555.02,643.00 C555.77,643.00 557.89,655.23 557.31,656.25 C556.85,657.06 553.62,657.28 552.88,656.55 ZM 722.67 648.33 C722.30,647.97 722.00,645.04 722.00,641.83 C722.00,636.26 722.11,636.00 724.52,636.00 C728.88,636.00 730.55,643.45 727.00,647.00 C724.90,649.10 723.78,649.44 722.67,648.33 ZM 542.67 577.25 C542.43,576.84 543.57,574.14 545.21,571.25 C547.22,567.70 548.83,566.00 550.16,566.00 C553.13,566.00 555.99,564.15 556.96,561.61 C557.51,560.16 559.56,558.69 562.66,557.52 C569.40,554.99 581.94,548.66 588.44,544.49 C596.22,539.52 600.36,539.93 597.85,545.43 C597.07,547.14 595.89,548.00 594.29,548.00 C590.78,548.00 587.00,552.25 586.99,556.20 C586.98,559.25 586.42,559.82 579.74,563.62 C570.92,568.65 560.26,573.24 551.12,575.96 C543.40,578.26 543.28,578.28 542.67,577.25 ZM 600.00 548.29 C600.00,545.16 602.24,541.93 605.29,540.65 C607.43,539.76 609.14,538.08 609.97,536.07 C610.79,534.08 612.75,532.15 615.21,530.89 C618.83,529.05 619.05,529.03 618.13,530.70 C616.58,533.51 600.00,549.60 600.00,548.29 ZM 596.56 536.78 C594.47,533.80 594.60,531.78 597.07,528.63 C601.44,523.08 610.11,526.73 608.43,533.42 C607.07,538.83 599.50,540.97 596.56,536.78 ZM 612.00 529.00 C612.00,528.45 612.40,528.00 612.90,528.00 C613.39,528.00 617.29,524.74 621.57,520.75 C628.85,513.95 629.78,514.13 624.71,521.37 C622.83,524.04 614.62,530.00 612.80,530.00 C612.36,530.00 612.00,529.55 612.00,529.00 ZM 421.00 534.89 C413.04,529.58 400.11,517.50 397.06,512.50 C396.05,510.85 394.73,506.54 394.11,502.92 C393.02,496.48 392.61,488.00 393.39,488.00 C393.61,488.00 397.93,490.45 402.99,493.44 C408.06,496.44 414.18,499.70 416.60,500.69 C420.65,502.36 420.99,502.79 421.00,506.12 C421.00,510.54 423.89,514.47 428.33,516.07 C431.54,517.23 431.61,517.40 432.82,526.27 C433.50,531.23 433.92,535.33 433.77,535.39 C433.62,535.45 432.37,536.49 431.00,537.69 L 428.50 539.88 L 421.00 534.89 ZM 426.92 511.08 C423.76,507.91 423.37,506.07 425.15,502.68 C426.69,499.75 427.95,499.03 431.50,499.03 C435.05,499.03 436.31,499.75 437.85,502.68 C439.63,506.07 439.22,508.87 436.55,511.55 C433.31,514.78 430.49,514.64 426.92,511.08 ZM 441.70 502.82 C440.90,500.90 439.06,498.41 437.62,497.27 C435.71,495.77 435.00,494.30 435.02,491.86 C435.04,488.07 437.67,470.00 438.29,469.38 C438.51,469.16 445.18,473.82 453.11,479.74 C466.48,489.72 476.09,496.47 477.97,497.20 C478.40,497.36 478.54,498.92 478.28,500.66 C477.67,504.69 477.05,504.85 458.33,505.65 L 443.15 506.31 L 441.70 502.82 ZM 386.24 493.25 C381.64,483.40 379.92,477.24 382.14,478.55 C388.56,482.36 390.00,484.24 390.04,488.87 C390.07,491.42 390.46,495.41 390.91,497.75 C391.36,500.09 391.42,502.00 391.03,502.00 C390.65,502.00 388.49,498.06 386.24,493.25 ZM 411.00 494.95 C405.77,492.22 399.34,488.39 396.70,486.45 L 391.91 482.91 L 392.20 476.78 L 392.50 470.64 L 397.60 469.50 C402.32,468.44 402.90,468.52 405.27,470.56 C406.69,471.77 408.83,474.73 410.04,477.13 C411.25,479.54 414.43,485.16 417.12,489.64 C421.82,497.48 422.85,500.04 421.25,499.97 C420.84,499.95 416.23,497.69 411.00,494.95 ZM 422.64 493.60 C421.34,491.89 418.21,486.67 415.69,482.00 L 411.10 473.50 L 413.40 471.46 C414.66,470.34 415.89,468.83 416.13,468.10 C416.39,467.32 419.97,466.19 424.95,465.33 C436.48,463.34 436.28,462.99 433.76,480.55 L 431.74 494.59 L 428.37 495.65 C425.24,496.63 424.85,496.49 422.64,493.60 ZM 471.87 490.20 C458.29,480.93 439.00,465.83 439.00,464.47 C439.00,463.09 441.14,462.60 454.81,460.89 C463.76,459.77 464.17,459.80 465.56,461.78 C466.35,462.92 468.32,464.13 469.92,464.48 C472.62,465.07 473.19,466.08 477.30,477.31 C483.29,493.68 483.26,493.54 481.69,494.84 C480.63,495.72 478.45,494.69 471.87,490.20 ZM 489.38 492.77 L 485.26 491.77 L 480.28 478.14 C476.23,467.04 475.53,464.22 476.53,463.00 C477.21,462.17 478.04,460.58 478.39,459.45 C478.96,457.56 480.50,457.25 497.25,455.67 C518.13,453.70 523.62,453.57 524.53,455.04 C525.21,456.15 520.99,462.10 509.82,475.78 C500.05,487.75 494.57,494.02 494.00,493.88 C493.73,493.81 491.65,493.31 489.38,492.77 ZM 385.75 477.88 C381.29,474.56 382.50,471.00 388.08,471.00 C389.69,471.00 390.00,471.73 390.00,475.50 C390.00,480.57 389.63,480.78 385.75,477.88 ZM 381.04 466.58 C378.63,464.88 377.97,463.54 377.43,459.20 C376.34,450.62 377.38,444.93 381.51,436.67 C385.54,428.63 387.00,427.28 387.00,431.58 C387.00,433.09 388.21,435.36 389.93,437.08 L 392.86 440.01 L 391.46 451.76 C390.69,458.21 390.05,464.46 390.03,465.64 C389.99,468.76 384.89,469.29 381.04,466.58 ZM 393.34 459.15 C394.59,441.65 395.99,436.78 397.48,444.75 C397.86,446.81 399.54,452.03 401.20,456.34 C402.98,460.98 403.85,464.55 403.32,465.08 C402.82,465.58 400.23,466.39 397.57,466.89 L 392.72 467.80 L 393.34 459.15 ZM 414.49 461.24 C412.31,459.37 410.99,458.97 408.49,459.44 C405.45,460.01 405.20,459.82 403.70,455.77 C402.83,453.42 401.37,448.88 400.47,445.68 C398.90,440.14 398.90,439.79 400.63,438.53 C402.86,436.90 402.69,436.78 418.08,451.27 C424.35,457.17 428.81,462.03 427.99,462.06 C427.17,462.09 424.43,462.46 421.89,462.88 C417.85,463.55 416.94,463.34 414.49,461.24 ZM 429.28 457.78 C427.20,456.01 420.85,450.31 415.18,445.11 C406.56,437.23 404.97,435.32 405.57,433.58 C405.97,432.44 406.39,429.76 406.51,427.63 C406.67,424.71 407.43,423.22 409.61,421.51 C413.86,418.20 440.20,404.00 442.10,404.00 C443.00,404.00 444.96,405.84 446.45,408.10 C448.74,411.57 449.00,412.61 448.11,414.85 C446.94,417.81 439.82,446.32 438.02,455.25 C436.63,462.15 434.98,462.63 429.28,457.78 ZM 440.42 456.40 C441.83,448.59 449.24,418.48 449.95,417.71 C450.35,417.28 454.31,424.62 458.75,434.03 C466.74,450.93 466.81,451.16 465.20,453.98 C463.72,456.55 462.76,456.95 455.53,457.98 C451.11,458.61 445.75,459.39 443.61,459.71 L 439.72 460.30 L 440.42 456.40 ZM 478.00 453.67 C478.00,451.70 475.00,450.00 471.51,450.00 C469.29,450.00 468.50,449.13 466.30,444.25 C464.88,441.09 460.90,432.58 457.47,425.34 L 451.23 412.17 L 453.29 405.17 L 455.35 398.16 L 470.43 393.16 C478.72,390.41 487.08,387.87 489.01,387.52 L 492.51 386.87 L 503.60 404.68 C509.69,414.48 517.27,427.14 520.44,432.82 C525.62,442.11 526.04,443.30 524.70,444.82 C523.88,445.74 523.04,447.38 522.85,448.46 C522.40,450.90 519.78,451.46 502.00,452.91 C494.58,453.52 486.14,454.30 483.25,454.65 C478.84,455.18 478.00,455.02 478.00,453.67 ZM 530.56 441.13 C528.05,440.59 526.58,438.65 520.26,427.50 C516.21,420.35 508.98,408.24 504.20,400.59 C499.41,392.95 495.59,386.44 495.71,386.14 C496.29,384.60 523.00,380.49 542.38,378.96 C558.95,377.65 562.00,378.34 562.00,383.37 C562.01,385.09 562.92,387.99 564.03,389.81 L 566.05 393.13 L 562.98 398.88 C558.74,406.83 535.73,441.32 534.50,441.56 C533.95,441.66 532.18,441.47 530.56,441.13 ZM 377.03 435.34 C376.97,427.22 383.17,401.00 385.15,401.00 C385.62,401.00 386.00,402.40 386.00,404.11 C386.00,405.81 386.69,409.88 387.54,413.15 C389.04,418.95 389.02,419.16 386.79,422.29 C385.53,424.05 382.82,428.65 380.78,432.50 L 377.05 439.50 L 377.03 435.34 ZM 392.63 434.93 C389.10,432.14 389.01,426.90 392.45,423.45 C396.49,419.42 401.34,420.70 403.34,426.31 C404.20,428.73 401.65,434.58 399.15,435.92 C396.36,437.41 395.65,437.30 392.63,434.93 ZM 403.00 419.50 C402.32,418.67 401.14,418.00 400.38,418.00 C399.42,418.00 399.00,416.69 399.00,413.73 C399.00,409.64 399.43,409.04 409.25,399.38 C419.09,389.70 430.42,380.00 431.88,380.00 C432.75,380.00 442.56,399.80 441.95,400.30 C441.70,400.50 436.55,403.27 430.50,406.45 C424.45,409.64 416.31,414.21 412.42,416.62 C408.52,419.03 405.09,421.00 404.79,421.00 C404.49,421.00 403.68,420.33 403.00,419.50 ZM 389.16 410.25 C388.56,407.09 387.77,402.14 387.41,399.25 L 386.74 394.01 L 390.41 392.47 C394.30,390.85 396.45,387.15 395.72,383.34 C395.42,381.73 396.44,380.22 399.65,377.53 C402.04,375.54 404.00,374.30 404.00,374.79 C404.00,375.28 403.08,378.34 401.96,381.59 C400.84,384.84 398.91,392.45 397.68,398.50 C395.68,408.35 392.72,416.00 390.91,416.00 C390.55,416.00 389.77,413.41 389.16,410.25 ZM 447.49 404.99 C445.97,402.04 446.00,401.95 448.61,400.96 C450.08,400.40 451.43,400.09 451.61,400.28 C452.05,400.71 450.04,408.00 449.48,408.00 C449.24,408.00 448.35,406.64 447.49,404.99 ZM 399.62 401.75 C400.84,394.86 403.98,382.26 405.79,377.00 C407.38,372.36 408.42,371.04 412.41,368.56 C415.39,366.71 417.40,366.01 417.82,366.66 C418.90,368.31 422.65,370.00 425.25,370.00 C426.97,370.00 428.08,370.94 429.24,373.38 L 430.86 376.77 L 424.58 381.86 C421.14,384.65 414.08,391.00 408.91,395.96 C403.73,400.92 399.40,404.98 399.27,404.99 C399.15,404.99 399.31,403.54 399.62,401.75 ZM 439.62 388.56 C436.94,382.88 435.07,377.70 435.46,377.06 C436.23,375.82 450.87,366.15 455.97,363.51 C458.73,362.09 459.22,362.09 461.50,363.59 C462.87,364.49 463.98,365.52 463.97,365.87 C463.95,366.21 461.52,373.23 458.57,381.46 C453.46,395.72 453.05,396.48 449.85,397.63 C448.01,398.30 446.05,398.86 445.50,398.88 C444.95,398.89 442.31,394.25 439.62,388.56 ZM 457.00 393.95 C457.00,393.49 458.83,388.02 461.07,381.80 C463.31,375.59 465.36,369.81 465.63,368.96 C465.90,368.12 468.01,366.95 470.31,366.37 C472.61,365.79 475.17,365.04 476.00,364.71 C477.07,364.29 479.20,366.72 483.50,373.31 C490.36,383.81 490.84,384.99 488.32,385.02 C487.32,385.04 479.86,387.24 471.75,389.92 C463.64,392.61 457.00,394.42 457.00,393.95 ZM 571.39 392.02 C568.01,390.65 565.00,386.07 565.00,382.29 C565.00,377.68 569.54,373.00 574.02,373.00 C578.62,373.00 584.00,378.56 584.00,383.32 C584.00,388.22 583.19,389.85 579.93,391.54 C576.78,393.16 574.53,393.29 571.39,392.02 ZM 578.53 385.97 C581.16,383.06 579.53,378.62 575.67,378.18 C570.23,377.55 568.15,382.20 572.19,385.96 C574.94,388.52 576.22,388.52 578.53,385.97 ZM 488.16 375.57 C479.71,363.59 478.96,362.26 479.66,360.44 C480.19,359.07 481.18,358.89 485.40,359.44 C501.62,361.51 535.28,369.65 545.32,373.92 L 549.50 375.70 L 541.00 376.38 C530.06,377.27 513.87,379.58 502.67,381.85 L 493.84 383.64 L 488.16 375.57 ZM 398.56 372.36 C401.83,366.65 411.99,353.66 412.66,354.33 C412.92,354.58 411.31,358.33 409.10,362.65 C406.06,368.57 403.93,371.33 400.42,373.86 L 395.78 377.23 L 398.56 372.36 ZM 551.50 373.46 C534.33,366.34 496.78,357.00 485.30,357.00 C482.62,357.00 481.75,356.48 480.98,354.43 C480.44,353.02 480.00,351.68 480.00,351.45 C480.00,350.70 493.27,344.39 500.50,341.69 C504.35,340.25 511.04,338.12 515.38,336.94 C522.93,334.90 523.41,334.88 527.04,336.52 C529.12,337.46 531.35,337.90 531.99,337.50 C533.53,336.55 537.86,340.72 544.98,350.02 C552.45,359.78 562.00,373.81 562.00,375.04 C562.00,376.69 557.74,376.05 551.50,373.46 ZM 431.44 371.79 C430.04,368.83 430.03,368.14 431.41,364.85 C432.93,361.23 433.04,361.18 442.23,359.52 C447.34,358.60 453.31,358.00 455.51,358.18 L 459.50 358.50 L 452.00 362.91 C447.87,365.34 441.91,369.07 438.75,371.20 L 433.00 375.07 L 431.44 371.79 ZM 411.00 365.06 C411.00,364.51 412.65,361.02 414.66,357.28 C420.43,346.60 423.00,344.38 423.00,350.10 C423.00,352.25 422.09,354.05 420.00,356.00 C418.35,357.54 417.00,359.74 417.00,360.88 C417.00,362.17 415.87,363.53 414.00,364.50 C412.35,365.35 411.00,365.61 411.00,365.06 ZM 464.00 361.00 C457.69,354.69 468.01,345.14 475.01,350.81 C479.84,354.72 475.98,363.00 469.33,363.00 C467.33,363.00 465.20,362.20 464.00,361.00 ZM 431.66 356.56 C431.31,355.65 429.71,354.45 428.11,353.89 C425.54,352.99 425.25,352.50 425.69,349.69 C425.96,347.93 427.04,345.69 428.09,344.71 C429.14,343.73 430.00,341.63 430.00,340.06 C430.00,337.58 431.04,336.53 437.75,332.24 C449.57,324.70 449.87,324.57 451.91,326.42 C452.87,327.29 454.54,328.00 455.62,328.00 C457.08,328.00 458.78,330.29 462.21,336.87 L 466.84 345.74 L 463.87 347.94 C462.23,349.15 460.44,351.15 459.87,352.38 C459.00,354.31 457.59,354.78 449.68,355.82 C444.63,356.48 438.65,357.30 436.40,357.63 C433.14,358.10 432.17,357.88 431.66,356.56 ZM 476.26 347.18 C474.58,346.11 483.22,332.98 491.25,324.40 C496.83,318.43 497.51,318.00 500.55,318.58 C502.35,318.91 505.41,318.62 507.35,317.92 C510.75,316.69 511.03,316.78 516.37,320.90 C523.94,326.74 524.52,327.55 523.23,330.40 C522.51,331.98 520.97,332.97 518.53,333.43 C512.79,334.51 500.36,338.87 489.53,343.63 C479.03,348.23 478.24,348.44 476.26,347.18 ZM 470.32 345.22 C469.67,344.81 467.14,340.73 464.70,336.15 L 460.26 327.84 L 462.38 323.93 C464.48,320.05 464.54,320.02 470.56,320.01 C474.33,320.00 477.35,319.44 478.56,318.53 C479.85,317.55 482.99,317.05 487.97,317.03 L 495.44 317.00 L 489.41 323.25 C482.79,330.09 479.77,334.03 475.57,341.25 C472.71,346.17 472.30,346.48 470.32,345.22 ZM 422.15 343.11 C420.13,341.83 421.20,338.55 423.76,338.18 C426.45,337.80 427.77,340.37 425.99,342.51 C424.58,344.22 424.03,344.30 422.15,343.11 ZM 576.22 339.44 C571.70,336.27 574.52,331.55 579.56,333.85 C582.38,335.13 582.94,339.43 580.42,340.39 C578.41,341.16 578.80,341.25 576.22,339.44 ZM 547.11 330.25 C539.63,329.99 537.21,329.52 535.22,327.96 C533.85,326.88 531.30,326.00 529.56,326.00 C527.23,326.00 524.94,324.77 521.02,321.42 L 515.65 316.84 L 519.58 317.53 C535.59,320.32 556.01,326.08 562.00,329.50 C564.46,330.91 564.44,330.93 560.50,330.76 C558.30,330.66 552.27,330.44 547.11,330.25 ZM 567.44 329.52 C561.26,324.82 535.23,317.14 516.63,314.52 C508.56,313.39 512.67,312.03 526.19,311.34 L 538.76 310.70 L 540.55 313.44 C543.08,317.30 546.63,318.47 549.70,316.46 C552.00,314.95 552.37,315.03 556.81,317.89 C561.86,321.13 572.09,331.00 570.40,331.00 C569.84,331.00 568.51,330.33 567.44,329.52 ZM 501.01 315.71 C497.58,313.97 497.37,311.46 500.48,309.42 C505.48,306.14 511.60,311.48 507.06,315.16 C504.37,317.33 504.24,317.34 501.01,315.71 Z" fill="rgb(233,233,233)"/>
</g>
</svg>